<svg width="159" height="34" viewBox="0 0 159 34" fill="none" xmlns="http://www.w3.org/2000/svg">
<g filter="url(#filter0_b_4675_16448)">
<rect width="158.333" height="33.3333" rx="5.83333" fill="white" fill-opacity="0.4"/>
<path d="M14.675 22.667V17.899H19.507V16.427H14.675V12.779H20.003V11.323H13.107V22.667H14.675ZM21.693 18.027C21.757 17.035 22.525 16.059 23.789 16.059C25.149 16.059 25.869 16.923 25.901 18.027H21.693ZM26.125 20.027C25.837 20.891 25.213 21.579 23.965 21.579C22.669 21.579 21.677 20.619 21.645 19.243H27.437C27.453 19.147 27.469 18.955 27.469 18.763C27.469 16.363 26.141 14.731 23.773 14.731C21.837 14.731 20.093 16.379 20.093 18.795C20.093 21.403 21.901 22.907 23.965 22.907C25.757 22.907 26.989 21.835 27.421 20.475L26.125 20.027ZM28.4289 20.603C28.4289 21.819 29.4369 22.907 31.0049 22.907C32.3809 22.907 33.1489 22.171 33.4849 21.627C33.4849 22.187 33.5329 22.475 33.5649 22.667H35.0369C35.0049 22.475 34.9409 22.075 34.9409 21.403V17.547C34.9409 16.043 34.0449 14.731 31.7409 14.731C30.0769 14.731 28.7489 15.755 28.5889 17.227L30.0289 17.563C30.1249 16.667 30.7169 16.011 31.7729 16.011C32.9409 16.011 33.4369 16.635 33.4369 17.387C33.4369 17.659 33.3089 17.899 32.8449 17.963L30.7649 18.267C29.4369 18.459 28.4289 19.227 28.4289 20.603ZM31.2129 21.643C30.4449 21.643 29.9649 21.099 29.9649 20.523C29.9649 19.835 30.4449 19.467 31.0849 19.371L33.4369 19.019V19.371C33.4369 21.051 32.4449 21.643 31.2129 21.643ZM38.8199 12.539H37.4439V13.787C37.4439 14.459 37.0919 14.971 36.2599 14.971H35.8439V16.331H37.3159V20.555C37.3159 21.947 38.1479 22.747 39.4599 22.747C39.9719 22.747 40.3559 22.651 40.4839 22.603V21.323C40.3559 21.355 40.0839 21.387 39.8919 21.387C39.1079 21.387 38.8199 21.035 38.8199 20.331V16.331H40.4839V14.971H38.8199V12.539ZM47.0834 21.739C47.0834 22.059 47.1154 22.491 47.1474 22.667H48.5874C48.5554 22.395 48.5074 21.851 48.5074 21.243V14.971H47.0034V19.611C47.0034 20.779 46.3954 21.579 45.1794 21.579C43.9154 21.579 43.4354 20.651 43.4354 19.595V14.971H41.9314V19.819C41.9314 21.563 43.0194 22.907 44.8114 22.907C45.7074 22.907 46.6674 22.539 47.0834 21.739ZM54.8659 14.891C54.7859 14.875 54.5779 14.843 54.3699 14.843C53.5859 14.843 52.6259 15.131 52.0659 16.315V14.971H50.5939V22.667H52.0979V18.811C52.0979 17.115 52.9459 16.443 54.2099 16.443C54.4179 16.443 54.6419 16.459 54.8659 16.491V14.891ZM56.8867 18.027C56.9507 17.035 57.7187 16.059 58.9827 16.059C60.3427 16.059 61.0627 16.923 61.0947 18.027H56.8867ZM61.3187 20.027C61.0307 20.891 60.4067 21.579 59.1587 21.579C57.8627 21.579 56.8707 20.619 56.8387 19.243H62.6307C62.6467 19.147 62.6627 18.955 62.6627 18.763C62.6627 16.363 61.3347 14.731 58.9667 14.731C57.0307 14.731 55.2867 16.379 55.2867 18.795C55.2867 21.403 57.0947 22.907 59.1587 22.907C60.9507 22.907 62.1827 21.835 62.6147 20.475L61.3187 20.027ZM64.9986 18.795C64.9986 17.211 65.8946 16.091 67.2706 16.091C68.6466 16.091 69.4786 17.179 69.4786 18.763C69.4786 20.347 68.6306 21.547 67.2546 21.547C65.8146 21.547 64.9986 20.379 64.9986 18.795ZM69.4946 21.627C69.4946 22.091 69.5426 22.491 69.5746 22.667H71.0306C71.0146 22.539 70.9506 21.979 70.9506 21.243V11.083H69.4626V16.059C69.2066 15.435 68.4706 14.763 67.1106 14.763C64.9346 14.763 63.4626 16.619 63.4626 18.795C63.4626 21.083 64.8546 22.875 67.1106 22.875C68.3106 22.875 69.1266 22.235 69.4946 21.499V21.627ZM76.0689 20.603C76.0689 21.819 77.0769 22.907 78.6449 22.907C80.0209 22.907 80.7889 22.171 81.1249 21.627C81.1249 22.187 81.1729 22.475 81.2049 22.667H82.6769C82.6449 22.475 82.5809 22.075 82.5809 21.403V17.547C82.5809 16.043 81.6849 14.731 79.3809 14.731C77.7169 14.731 76.3889 15.755 76.2289 17.227L77.6689 17.563C77.7649 16.667 78.3569 16.011 79.4129 16.011C80.5809 16.011 81.0769 16.635 81.0769 17.387C81.0769 17.659 80.9489 17.899 80.4849 17.963L78.4049 18.267C77.0769 18.459 76.0689 19.227 76.0689 20.603ZM78.8529 21.643C78.0849 21.643 77.6049 21.099 77.6049 20.523C77.6049 19.835 78.0849 19.467 78.7249 19.371L81.0769 19.019V19.371C81.0769 21.051 80.0849 21.643 78.8529 21.643ZM85.9319 25.707V21.627C86.3479 22.315 87.2439 22.875 88.4279 22.875C90.6839 22.875 92.0119 21.099 92.0119 18.811C92.0119 16.571 90.7799 14.795 88.4759 14.795C87.2279 14.795 86.3159 15.403 85.8999 16.171V14.971H84.4439V25.707H85.9319ZM90.4759 18.811C90.4759 20.395 89.5959 21.531 88.2039 21.531C86.8279 21.531 85.9159 20.395 85.9159 18.811C85.9159 17.275 86.8279 16.123 88.2039 16.123C89.6119 16.123 90.4759 17.275 90.4759 18.811ZM92.9682 20.603C92.9682 21.819 93.9762 22.907 95.5442 22.907C96.9202 22.907 97.6882 22.171 98.0242 21.627C98.0242 22.187 98.0722 22.475 98.1042 22.667H99.5762C99.5442 22.475 99.4802 22.075 99.4802 21.403V17.547C99.4802 16.043 98.5842 14.731 96.2802 14.731C94.6162 14.731 93.2882 15.755 93.1282 17.227L94.5682 17.563C94.6642 16.667 95.2562 16.011 96.3122 16.011C97.4802 16.011 97.9762 16.635 97.9762 17.387C97.9762 17.659 97.8482 17.899 97.3842 17.963L95.3042 18.267C93.9762 18.459 92.9682 19.227 92.9682 20.603ZM95.7522 21.643C94.9842 21.643 94.5042 21.099 94.5042 20.523C94.5042 19.835 94.9842 19.467 95.6242 19.371L97.9762 19.019V19.371C97.9762 21.051 96.9842 21.643 95.7522 21.643ZM105.615 14.891C105.535 14.875 105.327 14.843 105.119 14.843C104.335 14.843 103.375 15.131 102.815 16.315V14.971H101.343V22.667H102.847V18.811C102.847 17.115 103.695 16.443 104.959 16.443C105.167 16.443 105.391 16.459 105.615 16.491V14.891ZM109.16 12.539H107.784V13.787C107.784 14.459 107.432 14.971 106.6 14.971H106.184V16.331H107.656V20.555C107.656 21.947 108.488 22.747 109.8 22.747C110.312 22.747 110.696 22.651 110.824 22.603V21.323C110.696 21.355 110.424 21.387 110.232 21.387C109.448 21.387 109.16 21.035 109.16 20.331V16.331H110.824V14.971H109.16V12.539ZM113.684 22.667V18.027C113.684 16.875 114.404 16.075 115.476 16.075C116.628 16.075 117.108 16.843 117.108 17.835V22.667H118.612V18.011C118.612 16.907 119.332 16.075 120.388 16.075C121.524 16.075 122.02 16.827 122.02 17.835V22.667H123.508V17.675C123.508 15.659 122.196 14.747 120.852 14.747C119.876 14.747 118.884 15.099 118.276 16.203C117.86 15.211 116.932 14.747 115.972 14.747C115.076 14.747 114.116 15.147 113.636 15.995V14.971H112.196V22.667H113.684ZM126.41 18.027C126.474 17.035 127.242 16.059 128.506 16.059C129.866 16.059 130.586 16.923 130.618 18.027H126.41ZM130.842 20.027C130.554 20.891 129.93 21.579 128.682 21.579C127.386 21.579 126.394 20.619 126.362 19.243H132.154C132.17 19.147 132.186 18.955 132.186 18.763C132.186 16.363 130.858 14.731 128.49 14.731C126.554 14.731 124.81 16.379 124.81 18.795C124.81 21.403 126.618 22.907 128.682 22.907C130.474 22.907 131.706 21.835 132.138 20.475L130.842 20.027ZM135.13 18.219C135.13 17.051 135.738 16.107 136.922 16.107C138.266 16.107 138.714 16.971 138.714 18.043V22.667H140.218V17.787C140.218 16.075 139.306 14.747 137.466 14.747C136.57 14.747 135.658 15.115 135.098 16.075V14.971H133.626V22.667H135.13V18.219ZM144.147 12.539H142.771V13.787C142.771 14.459 142.419 14.971 141.587 14.971H141.171V16.331H142.643V20.555C142.643 21.947 143.475 22.747 144.787 22.747C145.299 22.747 145.683 22.651 145.811 22.603V21.323C145.683 21.355 145.411 21.387 145.219 21.387C144.435 21.387 144.147 21.035 144.147 20.331V16.331H145.811V14.971H144.147V12.539Z" fill="#3C4043"/>
</g>
<defs>
<filter id="filter0_b_4675_16448" x="-28" y="-28" width="214.333" height="89.333" filterUnits="userSpaceOnUse" color-interpolation-filters="sRGB">
<feFlood flood-opacity="0" result="BackgroundImageFix"/>
<feGaussianBlur in="BackgroundImage" stdDeviation="14"/>
<feComposite in2="SourceAlpha" operator="in" result="effect1_backgroundBlur_4675_16448"/>
<feBlend mode="normal" in="SourceGraphic" in2="effect1_backgroundBlur_4675_16448" result="shape"/>
</filter>
</defs>
</svg>
