<svg width="98" height="98" viewBox="0 0 98 98" fill="none" xmlns="http://www.w3.org/2000/svg">
<path d="M39.8109 70.4375V58.1875C39.8109 56.9692 39.327 55.8007 38.4655 54.9392C37.604 54.0777 36.4355 53.5938 35.2172 53.5938C33.9989 53.5938 32.8304 54.0777 31.9689 54.9392C31.1074 55.8007 30.6234 56.9692 30.6234 58.1875V70.4375C29.4708 71.3094 28.5884 72.4898 28.0784 73.8421C27.5684 75.1944 27.4516 76.6635 27.7416 78.0794C28.0315 79.4954 28.7162 80.8003 29.7167 81.8434C30.7171 82.8865 31.9924 83.625 33.395 83.9738C33.9913 84.1233 34.6025 84.2055 35.2172 84.2188C36.8241 84.2188 38.3903 83.7132 39.6939 82.7736C40.9975 81.834 41.9724 80.5081 42.4805 78.9836C42.9887 77.4592 43.0043 75.8135 42.5252 74.2797C42.0461 72.7458 41.0965 71.4016 39.8109 70.4375ZM38.0653 80.1303C37.5744 80.5477 37.0011 80.8571 36.3827 81.0384C35.7644 81.2198 35.1148 81.269 34.4762 81.1829C33.8376 81.0968 33.2242 80.8773 32.676 80.5387C32.1278 80.2001 31.6569 79.7499 31.294 79.2175C30.9311 78.685 30.6842 78.0821 30.5695 77.448C30.4549 76.8139 30.4748 76.1628 30.6282 75.5369C30.7816 74.911 31.0649 74.3245 31.4598 73.8152C31.8547 73.306 32.3523 72.8856 32.9203 72.5813C33.154 72.4463 33.3479 72.2521 33.4823 72.0181C33.6168 71.7842 33.687 71.5189 33.6859 71.2491V58.1875C33.6859 57.7814 33.8473 57.3919 34.1344 57.1047C34.4216 56.8176 34.8111 56.6562 35.2172 56.6562C35.6233 56.6562 36.0128 56.8176 36.2999 57.1047C36.5871 57.3919 36.7484 57.7814 36.7484 58.1875V71.2797C36.7474 71.5495 36.8176 71.8148 36.9521 72.0488C37.0865 72.2827 37.2804 72.477 37.5141 72.6119C38.1569 72.9883 38.6985 73.5153 39.0923 74.1477C39.4861 74.78 39.7202 75.4986 39.7744 76.2415C39.8287 76.9844 39.7014 77.7294 39.4037 78.4122C39.1059 79.095 38.6466 79.6952 38.0653 80.1609V80.1303Z" fill="#3C4043"/>
<path d="M93.7431 58.1875L88.6747 57.0697C86.1407 56.4887 83.7499 55.4027 81.6451 53.8768C79.5403 52.3508 77.7648 50.4162 76.4247 48.1884C76.2891 47.9599 76.0964 47.7707 75.8655 47.6392C75.6346 47.5077 75.3735 47.4386 75.1078 47.4386C74.8421 47.4386 74.581 47.5077 74.3501 47.6392C74.1192 47.7707 73.9265 47.9599 73.7909 48.1884C71.8918 51.3267 69.1342 53.8559 65.8438 55.4772V49C65.843 47.5109 65.408 46.0544 64.5921 44.8088C63.7762 43.5632 62.6147 42.5825 61.25 41.9869V27.5625C61.25 20.6586 58.5074 14.0374 53.6256 9.15563C48.7438 4.27382 42.1227 1.53125 35.2188 1.53125C28.3148 1.53125 21.6937 4.27382 16.8119 9.15563C11.9301 14.0374 9.1875 20.6586 9.1875 27.5625V41.9869C7.82275 42.5825 6.66131 43.5632 5.8454 44.8088C5.02949 46.0544 4.59452 47.5109 4.59375 49V53.5938H3.0625C2.65639 53.5938 2.26691 53.7551 1.97974 54.0422C1.69258 54.3294 1.53125 54.7189 1.53125 55.125V82.6875C1.53125 83.0936 1.69258 83.4831 1.97974 83.7703C2.26691 84.0574 2.65639 84.2188 3.0625 84.2188H4.59375V88.8125C4.59375 90.8431 5.40039 92.7905 6.83621 94.2263C8.27204 95.6621 10.2194 96.4688 12.25 96.4688H58.1875C60.2181 96.4688 62.1655 95.6621 63.6013 94.2263C65.0371 92.7905 65.8438 90.8431 65.8438 88.8125V88.6134C67.9439 91.0728 70.3058 93.296 72.8875 95.2438L74.1125 96.1625C74.3776 96.3613 74.6999 96.4688 75.0312 96.4688C75.3626 96.4688 75.6849 96.3613 75.95 96.1625L77.175 95.2438C82.6769 91.0951 87.1437 85.729 90.2253 79.5658C93.3069 73.4025 94.9198 66.6095 94.9375 59.7188C94.9462 59.3648 94.8319 59.0188 94.6141 58.7396C94.3963 58.4604 94.0885 58.2653 93.7431 58.1875ZM12.25 27.5625C12.25 21.4708 14.6699 15.6286 18.9774 11.3211C23.2849 7.01366 29.1271 4.59375 35.2188 4.59375C41.3104 4.59375 47.1526 7.01366 51.4601 11.3211C55.7676 15.6286 58.1875 21.4708 58.1875 27.5625V41.3438H52.0625V27.5625C52.0625 23.0953 50.2879 18.811 47.1291 15.6522C43.9703 12.4934 39.686 10.7188 35.2188 10.7188C30.7515 10.7188 26.4672 12.4934 23.3084 15.6522C20.1496 18.811 18.375 23.0953 18.375 27.5625V41.3438H12.25V27.5625ZM49 41.3438H21.4375V27.5625C21.4375 23.9075 22.8895 20.4022 25.4739 17.8177C28.0584 15.2332 31.5637 13.7812 35.2188 13.7812C38.8738 13.7812 42.3791 15.2332 44.9636 17.8177C47.548 20.4022 49 23.9075 49 27.5625V41.3438ZM19.9062 56.6562V62.7812H4.59375V56.6562H19.9062ZM4.59375 81.1562V75.0312H19.9062V81.1562H4.59375ZM19.9062 71.9688H4.59375V65.8438H19.9062V71.9688ZM62.7812 88.8125C62.7812 90.0308 62.2973 91.1993 61.4358 92.0608C60.5743 92.9223 59.4058 93.4062 58.1875 93.4062H12.25C11.0317 93.4062 9.86322 92.9223 9.00173 92.0608C8.14023 91.1993 7.65625 90.0308 7.65625 88.8125V84.2188H21.4375C21.8436 84.2188 22.2331 84.0574 22.5203 83.7703C22.8074 83.4831 22.9688 83.0936 22.9688 82.6875V55.125C22.9688 54.7189 22.8074 54.3294 22.5203 54.0422C22.2331 53.7551 21.8436 53.5938 21.4375 53.5938H7.65625V49C7.65625 47.7817 8.14023 46.6132 9.00173 45.7517C9.86322 44.8902 11.0317 44.4062 12.25 44.4062H58.1875C59.4058 44.4062 60.5743 44.8902 61.4358 45.7517C62.2973 46.6132 62.7812 47.7817 62.7812 49V56.6562C62.3219 56.7941 61.8625 56.9319 61.3878 57.0391L56.3194 58.1875C55.974 58.2653 55.6662 58.4604 55.4484 58.7396C55.2306 59.0188 55.1163 59.3648 55.125 59.7188C55.1499 68.5845 57.8154 77.2418 62.7812 84.5863V88.8125ZM75.3375 92.7937L75.0312 93.0234L74.725 92.7937C69.7646 89.0572 65.7043 84.2567 62.8425 78.7451C59.9807 73.2335 58.3901 67.1507 58.1875 60.9437L62.0309 60.0863C67.2168 58.9339 71.8244 55.9761 75.0312 51.7409C78.2343 55.9731 82.836 58.9305 88.0163 60.0863L91.875 60.9437C91.6724 67.1507 90.0818 73.2335 87.22 78.7451C84.3582 84.2567 80.2979 89.0572 75.3375 92.7937Z" fill="#3C4043"/>
<path d="M84.0501 61.9387L81.3245 60.5605L80.2833 62.6277C77.9197 61.2306 75.1146 60.781 72.4327 61.3693C69.7509 61.9576 67.3916 63.5401 65.8298 65.7983C64.2681 68.0564 63.6199 70.8224 64.0159 73.5393C64.4118 76.2562 65.8225 78.7222 67.9638 80.4407C70.105 82.1592 72.8179 83.0026 75.5561 82.801C78.2943 82.5993 80.8544 81.3678 82.7209 79.3542C84.5874 77.3406 85.6217 74.6946 85.6155 71.949C85.6092 69.2035 84.563 66.5622 82.6873 64.5571L84.0501 61.9387ZM82.6873 71.9684C82.7047 73.6781 82.155 75.3453 81.1241 76.7094C80.0932 78.0734 78.6393 79.0574 76.9898 79.5073C75.3403 79.9572 73.5882 79.8478 72.0075 79.1961C70.4268 78.5444 69.1066 77.3872 68.2535 75.9054C67.4004 74.4237 67.0624 72.701 67.2924 71.0067C67.5224 69.3125 68.3074 67.7423 69.5247 66.5416C70.742 65.341 72.3229 64.5776 74.0202 64.3709C75.7174 64.1642 77.4353 64.5259 78.9051 65.3993L74.7708 73.6681L71.7083 69.5184L69.2583 71.3559L73.852 77.4809C73.9947 77.671 74.1796 77.8254 74.3922 77.9317C74.6048 78.038 74.8393 78.0934 75.077 78.0934H75.2148C75.4737 78.0686 75.7221 77.9783 75.9364 77.8309C76.1507 77.6836 76.324 77.484 76.4398 77.2512L81.2939 67.5431C82.2123 68.8348 82.6999 70.3834 82.6873 71.9684Z" fill="#3C4043"/>
</svg>
