<svg width="20" height="20" viewBox="0 0 20 20" fill="none" xmlns="http://www.w3.org/2000/svg">
<path d="M19.9675 13.476C19.9983 13.3935 20.0092 13.3026 19.9808 13.211L18.3333 7.85678V2.91682C18.3333 1.7685 17.3991 0.833496 16.25 0.833496H3.75C2.60082 0.833496 1.66668 1.7685 1.66668 2.91682V7.85682L0.0191797 13.211C-0.00914063 13.3018 0.00167969 13.3926 0.0325 13.476C0.0125 13.5643 0 13.6551 0 13.7501V17.0835V18.7501C0 18.9801 0.18668 19.1668 0.41668 19.1668H2.08336C2.31332 19.1668 2.5 18.9801 2.5 18.7501V17.5001H17.5V18.7501C17.5 18.9801 17.6867 19.1668 17.9167 19.1668H19.5834C19.8134 19.1668 20 18.9801 20 18.7501V17.0835V13.7501C20 13.6551 19.9875 13.5643 19.9675 13.476ZM2.5 2.91682C2.5 2.22764 3.06082 1.66682 3.75 1.66682H16.25C16.9392 1.66682 17.5 2.22764 17.5 2.91682V7.50014H16.3675L15.9792 5.94682C15.8392 5.38932 15.34 5.00014 14.7658 5.00014H12.0833C11.3941 5.00014 10.8333 5.56096 10.8333 6.25014V7.50014H9.16664V6.25096C9.16664 5.56178 8.60582 5.00096 7.91664 5.00096H5.23414C4.65996 5.00096 4.16082 5.39096 4.02082 5.94764L3.6325 7.50014H2.5V2.91682ZM15.5117 8.17346C15.4317 8.27514 15.3117 8.33346 15.1825 8.33346H12.0833C11.8541 8.33346 11.6666 8.14678 11.6666 7.91678V6.25014C11.6666 6.02014 11.8541 5.83346 12.0833 5.83346H14.7666C14.9583 5.83346 15.1241 5.96264 15.1708 6.14846L15.5875 7.81514C15.6192 7.94096 15.5917 8.07096 15.5117 8.17346ZM8.33418 6.25014V7.91264C8.33418 7.91432 8.33336 7.91514 8.33336 7.91682C8.33336 7.91764 8.33336 7.9185 8.33336 7.9185C8.33254 8.14768 8.14586 8.3335 7.91754 8.3335H4.81836C4.68836 8.3335 4.56918 8.27518 4.48918 8.1735C4.40918 8.071 4.38168 7.94018 4.41336 7.81518L4.83004 6.1485C4.87672 5.9635 5.04254 5.8335 5.23504 5.8335H7.91754C8.14668 5.83346 8.33418 6.02014 8.33418 6.25014ZM2.39082 8.33346H3.645C3.68918 8.45846 3.74668 8.57846 3.83082 8.68678C4.07082 8.99178 4.43 9.16678 4.8175 9.16678H7.91668C8.45918 9.16678 8.9175 8.81678 9.09 8.33346H10.91C11.0825 8.81764 11.5408 9.16678 12.0833 9.16678H15.1825C15.57 9.16678 15.9283 8.99178 16.1683 8.68678C16.2525 8.57928 16.31 8.45846 16.3541 8.33346H17.6091L18.8958 12.5151C18.8475 12.5093 18.8 12.5001 18.75 12.5001H1.25C1.2 12.5001 1.1525 12.5093 1.105 12.5151L2.39082 8.33346ZM1.66668 18.3335H0.83332V17.5001H1.66664V18.3335H1.66668ZM19.1667 18.3335H18.3334V17.5001H19.1667V18.3335ZM19.1667 16.6668H0.83332V13.7501C0.83332 13.5201 1.02082 13.3335 1.25 13.3335H18.75C18.9792 13.3335 19.1667 13.5201 19.1667 13.7501V16.6668Z" fill="#3C4043" fill-opacity="0.8"/>
</svg>
