<svg width="24" height="24" viewBox="0 0 24 24" fill="none" xmlns="http://www.w3.org/2000/svg">
<path d="M20 4H4C2.9 4 2 4.9 2 6V18C2 19.1 2.9 20 4 20H20C21.1 20 22 19.1 22 18V6C22 4.9 21.1 4 20 4ZM20 18H4V6H20V18Z" fill="#3C4043"/>
<path d="M8.29 15.7098C7.27 14.6898 6.75 13.3498 6.75 11.9998C6.75 10.6498 7.27 9.3098 8.28 8.2798L7.05 7.0498C5.68 8.4098 5 10.2098 5 11.9998C5 13.7898 5.68 15.5898 7.06 16.9398L8.29 15.7098Z" fill="#3C4043"/>
<path d="M12 15.5C13.93 15.5 15.5 13.93 15.5 12C15.5 10.07 13.93 8.5 12 8.5C10.07 8.5 8.5 10.07 8.5 12C8.5 13.93 10.07 15.5 12 15.5ZM12 10.5C12.83 10.5 13.5 11.17 13.5 12C13.5 12.83 12.83 13.5 12 13.5C11.17 13.5 10.5 12.83 10.5 12C10.5 11.17 11.17 10.5 12 10.5Z" fill="#3C4043"/>
<path d="M15.7209 15.7196L16.9509 16.9496C18.3209 15.5896 19.0009 13.7896 19.0009 11.9996C19.0009 10.2096 18.3209 8.40957 16.9409 7.05957L15.7109 8.28957C16.7309 9.30957 17.2509 10.6496 17.2509 11.9996C17.2509 13.3496 16.7309 14.6896 15.7209 15.7196Z" fill="#3C4043"/>
</svg>
