<svg width="18" height="20" viewBox="0 0 18 20" fill="none" xmlns="http://www.w3.org/2000/svg">
<path d="M18 14.8027L16.6154 14.1104V12.4613C16.6137 11.4806 16.2654 10.532 15.6319 9.78331C14.9985 9.03458 14.1208 8.53391 13.1539 8.36977V6.92285H11.7692V8.36977C10.8024 8.53391 9.92461 9.03458 9.29118 9.78331C8.65774 10.532 8.30939 11.4806 8.30771 12.4613V14.1104L6.9231 14.8027V17.9998H11.0769V19.3844H13.8462V17.9998H18V14.8027ZM16.6154 16.6152H8.30771V15.6584L9.69233 14.9661V12.4613C9.69233 11.7269 9.98408 11.0225 10.5034 10.5032C11.0227 9.98384 11.7271 9.69208 12.4616 9.69208C13.196 9.69208 13.9004 9.98384 14.4197 10.5032C14.939 11.0225 15.2308 11.7269 15.2308 12.4613V14.9661L16.6154 15.6584V16.6152Z" fill="#3C4043"/>
<path d="M16.6154 2.76923C16.6154 2.40201 16.4695 2.04983 16.2098 1.79016C15.9502 1.53049 15.598 1.38462 15.2308 1.38462H12.4615V0H11.0769V1.38462H5.53846V0H4.15385V1.38462H1.38462C1.01739 1.38462 0.66521 1.53049 0.405544 1.79016C0.145879 2.04983 0 2.40201 0 2.76923V16.6154C0 16.9826 0.145879 17.3348 0.405544 17.5945C0.66521 17.8541 1.01739 18 1.38462 18H4.15385V16.6154H1.38462V2.76923H4.15385V4.15385H5.53846V2.76923H11.0769V4.15385H12.4615V2.76923H15.2308V6.92308H16.6154V2.76923Z" fill="#3C4043"/>
</svg>
