<svg width="28" height="28" viewBox="0 0 28 28" fill="none" xmlns="http://www.w3.org/2000/svg">
<path d="M25.7877 18.4044C25.1318 18.8612 24.3782 19.1581 23.587 19.2714C22.7959 19.3847 21.9892 19.3113 21.2315 19.0569C21.1629 19.0324 21.0893 19.0249 21.0172 19.0349C20.945 19.0449 20.8763 19.0722 20.8169 19.1144L18.7778 20.5604L19.3026 21.2994L21.1527 19.9854C22.0174 20.2379 22.9275 20.2944 23.8168 20.1508C24.7061 20.0071 25.5522 19.6668 26.2934 19.1548C26.5604 18.9744 26.8135 18.7741 27.0505 18.5557L26.4361 17.8896C26.2333 18.0774 26.0165 18.2495 25.7877 18.4044Z" fill="#3C4043"/>
<path d="M21.2248 11.6416C20.5763 12.056 20.0568 12.6437 19.7251 13.3382C19.3935 14.0327 19.263 14.8062 19.3484 15.5711L13.6042 19.2532L7.85901 15.5734C7.94631 14.8082 7.81645 14.034 7.48429 13.3392C7.15213 12.6445 6.6311 12.0573 5.98081 11.6448C5.11761 11.0498 4.06794 10.788 3.02644 10.908C2.53516 10.9561 2.06057 11.112 1.63653 11.3648C1.2125 11.6175 0.849488 11.9607 0.573421 12.3699C0.297355 12.7791 0.115041 13.2442 0.0394986 13.732C-0.0360442 14.2198 -0.00295308 14.7183 0.136409 15.1918C0.415586 16.2019 1.05169 17.0765 1.92671 17.6532C2.55323 18.1023 3.29365 18.3658 4.06305 18.4133C4.83245 18.4608 5.59967 18.2905 6.2767 17.9219L10.7359 21.0879L6.49239 23.8089C6.29181 23.9364 6.11885 24.1028 5.98376 24.2983C5.84867 24.4938 5.7542 24.7145 5.70594 24.9471C5.65768 25.1798 5.65663 25.4199 5.70283 25.653C5.74903 25.8861 5.84156 26.1076 5.97492 26.3043C6.10777 26.5005 6.2785 26.6683 6.47709 26.7977C6.67567 26.927 6.89811 27.0154 7.13133 27.0576C7.36455 27.0999 7.60385 27.095 7.83519 27.0435C8.06652 26.9919 8.28522 26.8946 8.47844 26.7574L13.6042 23.1224L18.7299 26.7601C18.9234 26.9016 19.1434 27.0026 19.3768 27.0571C19.6102 27.1115 19.8522 27.1183 20.0882 27.077C20.3243 27.0357 20.5496 26.9471 20.7507 26.8167C20.9517 26.6862 21.1244 26.5165 21.2583 26.3178C21.3922 26.119 21.4846 25.8952 21.5299 25.6599C21.5753 25.4246 21.5727 25.1825 21.5223 24.9482C21.4718 24.7139 21.3746 24.4922 21.2365 24.2963C21.0983 24.1005 20.9221 23.9345 20.7182 23.8084L16.4697 21.0897L20.9321 17.9224C21.6091 18.2911 22.3762 18.4615 23.1456 18.4142C23.915 18.3668 24.6555 18.1035 25.2821 17.6546C27.1445 16.3976 27.7526 14.0259 26.6365 12.3675C25.5205 10.7091 23.0913 10.3846 21.2248 11.6416ZM7.95372 26.0202C7.76011 26.1505 7.52323 26.2 7.29364 26.1581C7.06405 26.1162 6.85993 25.9862 6.72484 25.7959C6.65945 25.6994 6.6141 25.5908 6.59147 25.4765C6.56884 25.3622 6.56939 25.2445 6.5931 25.1304C6.61681 25.0163 6.66318 24.9081 6.72948 24.8122C6.79578 24.7164 6.88064 24.6348 6.97905 24.5724L11.5325 21.6525L12.8189 22.5651L7.95372 26.0202ZM20.614 25.1307C20.6495 25.3026 20.6325 25.4812 20.5651 25.6433C20.4976 25.8054 20.383 25.9435 20.2361 26.0395C20.0891 26.1356 19.9167 26.1852 19.7412 26.1819C19.5656 26.1786 19.3952 26.1226 19.2519 26.0211L6.54676 17.0039C6.4693 16.9489 6.37652 16.9197 6.28156 16.9204C6.18659 16.921 6.09422 16.9515 6.01752 17.0075C5.48072 17.3578 4.84957 17.5355 4.20886 17.5166C3.56814 17.4977 2.94854 17.2832 2.4333 16.9019C1.74006 16.4472 1.2352 15.7566 1.0123 14.958C0.90564 14.6092 0.878321 14.2409 0.93234 13.8802C0.986359 13.5194 1.12035 13.1753 1.32451 12.8731C1.52866 12.5708 1.79782 12.318 2.11229 12.1331C2.42675 11.9483 2.77857 11.8361 3.14199 11.8047C3.96579 11.7123 4.79518 11.9215 5.47648 12.3938C6.02264 12.729 6.45316 13.2233 6.71025 13.8103C6.96734 14.3973 7.03868 15.0489 6.9147 15.6776C6.89141 15.7697 6.89769 15.8669 6.93266 15.9553C6.96763 16.0437 7.02951 16.1188 7.10955 16.1701L20.2293 24.572C20.3277 24.6344 20.4125 24.7161 20.4786 24.8121C20.5447 24.9081 20.5908 25.0165 20.614 25.1307ZM24.7737 16.901C24.2583 17.2822 23.6386 17.4966 22.9978 17.5153C22.357 17.534 21.7258 17.3562 21.189 17.0057C21.1123 16.9497 21.02 16.9192 20.925 16.9186C20.83 16.9179 20.7373 16.9471 20.6598 17.0021L15.6469 20.5609L14.4452 19.7906L20.0975 16.1656C20.1773 16.1144 20.2391 16.0394 20.274 15.9511C20.309 15.8629 20.3154 15.766 20.2923 15.674C20.1708 15.0451 20.2435 14.3942 20.5007 13.8077C20.7579 13.2212 21.1875 12.7268 21.7323 12.3902C23.1823 11.4128 25.0465 11.6285 25.8843 12.8696C26.7221 14.1107 26.2233 15.9236 24.7737 16.901Z" fill="#3C4043"/>
<path d="M4.96174 0.830101L4.46013 0.0751953C3.36556 0.800471 2.54469 1.87066 2.12789 3.11581C1.71109 4.36096 1.72226 5.70967 2.15962 6.94774L3.01376 6.64505C2.64393 5.59729 2.6348 4.456 2.98782 3.40245C3.34083 2.3489 4.03575 1.44352 4.96219 0.830101H4.96174Z" fill="#3C4043"/>
<path d="M3.97541 8.27769C3.75723 8.03018 3.56387 7.76185 3.39813 7.47656L2.61377 7.92969C2.80947 8.26697 3.03788 8.58418 3.29572 8.87672L3.97541 8.27769Z" fill="#3C4043"/>
<path d="M18.5797 15.4968L19.8697 9.04705C20.9186 8.95578 21.8915 8.46245 22.5849 7.67026C23.2783 6.87808 23.6384 5.84843 23.59 4.79675C23.5416 3.74507 23.0884 2.75287 22.3251 2.02773C21.5619 1.3026 20.5478 0.900728 19.495 0.906206C18.5787 0.902961 17.6888 1.21225 16.972 1.783C16.5987 1.23368 16.0966 0.784033 15.5096 0.473253C14.9227 0.162473 14.2686 0 13.6044 0C12.9402 0 12.2861 0.162473 11.6991 0.473253C11.1121 0.784033 10.6101 1.23368 10.2368 1.783C9.51998 1.21225 8.63001 0.902961 7.71376 0.906206C6.66458 0.906109 5.65573 1.31038 4.89694 2.03496C4.13816 2.75955 3.68783 3.7487 3.63957 4.79676C3.59132 5.84483 3.94885 6.87118 4.63785 7.66242C5.32684 8.45366 6.29428 8.94892 7.33902 9.04523L8.62907 15.4968L9.51719 15.3192L9.26344 14.0468H17.9453L17.6916 15.3156L18.5797 15.4968ZM16.3925 13.1406L16.7717 10.4862L15.8745 10.3575L15.4771 13.1406H14.0575V8.1562H13.1513V13.1406H11.7316L11.3342 10.3575L10.437 10.4862L10.8163 13.1406H9.0822L8.15782 8.5187C8.13693 8.41635 8.08132 8.32437 8.0004 8.25831C7.91948 8.19225 7.81822 8.15618 7.71376 8.1562C6.87252 8.1562 6.06575 7.82202 5.4709 7.22718C4.87606 6.63234 4.54188 5.82556 4.54188 4.98433C4.54188 4.1431 4.87606 3.33632 5.4709 2.74148C6.06575 2.14663 6.87252 1.81246 7.71376 1.81246C8.14558 1.81135 8.57299 1.8993 8.96928 2.07083C9.36557 2.24235 9.72224 2.49375 10.017 2.80933C10.0674 2.86259 10.1299 2.90283 10.1992 2.92661C10.2686 2.95039 10.3426 2.957 10.4151 2.94586C10.4875 2.93472 10.5562 2.90617 10.6152 2.86266C10.6742 2.81915 10.7217 2.76198 10.7538 2.69605C11.0126 2.15997 11.4174 1.70775 11.9216 1.39129C12.4258 1.07483 13.0091 0.906968 13.6044 0.906968C14.1997 0.906968 14.7829 1.07483 15.2871 1.39129C15.7914 1.70775 16.1961 2.15997 16.455 2.69605C16.487 2.76198 16.5346 2.81915 16.5936 2.86266C16.6526 2.90617 16.7212 2.93472 16.7937 2.94586C16.8661 2.957 16.9402 2.95039 17.0095 2.92661C17.0789 2.90283 17.1414 2.86259 17.1918 2.80933C17.4865 2.49375 17.8432 2.24235 18.2395 2.07083C18.6358 1.8993 19.0632 1.81135 19.495 1.81246C20.3362 1.81246 21.143 2.14663 21.7379 2.74148C22.3327 3.33632 22.6669 4.1431 22.6669 4.98433C22.6669 5.82556 22.3327 6.63234 21.7379 7.22718C21.143 7.82202 20.3362 8.1562 19.495 8.1562C19.3905 8.15618 19.2893 8.19225 19.2084 8.25831C19.1274 8.32437 19.0718 8.41635 19.0509 8.5187L18.1266 13.1406H16.3925Z" fill="#3C4043"/>
</svg>
