<svg width="27" height="27" viewBox="0 0 27 27" fill="none" xmlns="http://www.w3.org/2000/svg">
<path d="M4.23377 0.00195312C1.89927 0.00195312 0 2.49844 0 5.56701C0 7.98556 1.17812 10.1069 2.9 10.8513L2.51484 25.0835C2.50895 25.313 2.54905 25.5413 2.63278 25.755C2.71651 25.9686 2.84218 26.1634 3.00237 26.3278C3.16256 26.4921 3.35403 26.6227 3.5655 26.7119C3.77697 26.8011 4.00415 26.8471 4.23366 26.8471C4.46316 26.8471 4.69035 26.8011 4.90182 26.7119C5.11329 26.6227 5.30476 26.4921 5.46495 26.3278C5.62514 26.1634 5.7508 25.9686 5.83453 25.755C5.91826 25.5413 5.95836 25.313 5.95247 25.0835L5.56732 10.8516C7.28919 10.1071 8.46732 7.98579 8.46732 5.56723C8.46777 2.49844 6.5685 0.00195312 4.23377 0.00195312ZM5.03716 10.2059C4.95648 10.233 4.88665 10.2853 4.83802 10.3552C4.78938 10.425 4.76452 10.5087 4.7671 10.5937L5.16018 25.106C5.16354 25.2297 5.14206 25.3529 5.09701 25.4682C5.05197 25.5835 4.98428 25.6887 4.89793 25.7774C4.81158 25.8661 4.70834 25.9366 4.59428 25.9847C4.48023 26.0329 4.35769 26.0577 4.23388 26.0577C4.11008 26.0577 3.98754 26.0329 3.87349 25.9847C3.75943 25.9366 3.65618 25.8661 3.56984 25.7774C3.48349 25.6887 3.4158 25.5835 3.37075 25.4682C3.32571 25.3529 3.30423 25.2297 3.30758 25.106L3.70067 10.5937C3.70301 10.5089 3.67803 10.4255 3.62941 10.3558C3.58079 10.2862 3.5111 10.234 3.43061 10.207C1.87752 9.68523 0.792968 7.77757 0.792968 5.56701C0.792968 2.93594 2.33654 0.794922 4.23377 0.794922C6.131 0.794922 7.6748 2.93594 7.6748 5.56701C7.6748 7.77757 6.59025 9.68523 5.03716 10.2059Z" fill="#3C4043"/>
<path d="M14.4042 0.0164281C14.1522 -0.0284156 13.8925 0.0192637 13.6729 0.150689C13.4533 0.282115 13.2886 0.48844 13.2091 0.731686C12.079 4.04312 10.701 9.49444 10.5533 16.6602C10.5518 16.7326 10.5703 16.8041 10.6066 16.8669C10.6429 16.9296 10.6957 16.9812 10.7592 17.0161L12.3323 17.8784L11.8726 25.0214C11.8576 25.2513 11.889 25.4817 11.965 25.6992C12.0409 25.9166 12.1598 26.1166 12.3145 26.2871C12.4693 26.4577 12.6568 26.5954 12.8658 26.692C13.0749 26.7887 13.3012 26.8423 13.5314 26.8496C13.7616 26.857 13.991 26.8181 14.2058 26.735C14.4206 26.652 14.6165 26.5266 14.7819 26.3663C14.9473 26.206 15.0787 26.0141 15.1684 25.802C15.2581 25.5899 15.3043 25.3619 15.3041 25.1315V1.07878C15.3075 0.822923 15.2183 0.574455 15.0529 0.37921C14.8875 0.183965 14.6571 0.0551151 14.4042 0.0164281ZM14.5113 25.1315C14.511 25.3767 14.4135 25.6117 14.2402 25.785C14.0669 25.9583 13.8319 26.0559 13.5867 26.0562C13.4603 26.0561 13.3353 26.0302 13.2193 25.9799C13.1033 25.9297 12.9988 25.8562 12.9124 25.764C12.8259 25.6717 12.7593 25.5628 12.7166 25.4438C12.6739 25.3248 12.6561 25.1983 12.6642 25.0722L13.14 17.6776C13.1448 17.6024 13.1281 17.5273 13.0918 17.4612C13.0555 17.3951 13.0011 17.3407 12.9349 17.3045L11.3519 16.4365C11.5225 9.49104 12.8606 4.20897 13.9597 0.987928C13.9811 0.924187 14.0244 0.87014 14.082 0.835453C14.1396 0.800767 14.2077 0.787705 14.2741 0.798604C14.3404 0.809503 14.4007 0.843652 14.4442 0.894942C14.4877 0.946232 14.5115 1.01132 14.5113 1.07855V25.1315Z" fill="#3C4043"/>
<path d="M26.4518 0.00195319C26.3997 0.00192341 26.3482 0.0121585 26.3001 0.0320731C26.2519 0.0519878 26.2082 0.0811914 26.1714 0.118014C26.1346 0.154837 26.1054 0.198557 26.0855 0.246674C26.0655 0.294791 26.0553 0.346362 26.0553 0.398437V6.89851C26.0564 7.66598 25.8004 8.41169 25.3281 9.01665C24.8559 9.62162 24.1946 10.051 23.4499 10.2362C23.3622 10.2581 23.2847 10.3092 23.2301 10.3812C23.1755 10.4531 23.1471 10.5415 23.1497 10.6318L23.5416 25.1046C23.5455 25.2288 23.5244 25.3524 23.4796 25.4683C23.4347 25.5841 23.3671 25.6898 23.2806 25.779C23.1942 25.8682 23.0907 25.9391 22.9763 25.9875C22.8619 26.036 22.739 26.0609 22.6148 26.0609C22.4905 26.0609 22.3676 26.036 22.2532 25.9875C22.1388 25.9391 22.0353 25.8682 21.9489 25.779C21.8624 25.6898 21.7948 25.5841 21.7499 25.4683C21.7051 25.3524 21.684 25.2288 21.6879 25.1046L22.0798 10.6318C22.0824 10.5415 22.054 10.4531 21.9994 10.3812C21.9448 10.3092 21.8673 10.2581 21.7796 10.2362C21.0346 10.0513 20.3729 9.62207 19.9003 9.01708C19.4277 8.41209 19.1714 7.66621 19.1724 6.89851V0.398437C19.1724 0.293283 19.1306 0.192436 19.0562 0.118081C18.9819 0.0437255 18.881 0.00195319 18.7759 0.00195319C18.6707 0.00195319 18.5699 0.0437255 18.4955 0.118081C18.4212 0.192436 18.3794 0.293283 18.3794 0.398437V6.89851C18.3783 7.78804 18.6578 8.65524 19.1783 9.37661C19.6987 10.098 20.4335 10.6367 21.278 10.9161L20.8945 25.0829C20.888 25.3127 20.9277 25.5415 21.0112 25.7558C21.0947 25.9701 21.2203 26.1654 21.3806 26.3303C21.5409 26.4951 21.7326 26.6262 21.9445 26.7157C22.1563 26.8052 22.3839 26.8513 22.6138 26.8513C22.8438 26.8513 23.0714 26.8052 23.2832 26.7157C23.4951 26.6262 23.6868 26.4951 23.8471 26.3303C24.0074 26.1654 24.133 25.9701 24.2165 25.7558C24.3 25.5415 24.3397 25.3127 24.3332 25.0829L23.9497 10.9161C24.7942 10.6367 25.529 10.098 26.0494 9.37661C26.5699 8.65524 26.8494 7.78804 26.8483 6.89851V0.398437C26.8483 0.346362 26.8381 0.294791 26.8182 0.246674C26.7983 0.198557 26.7691 0.154837 26.7322 0.118014C26.6954 0.0811914 26.6517 0.0519878 26.6036 0.0320731C26.5555 0.0121585 26.5039 0.00192341 26.4518 0.00195319Z" fill="#3C4043"/>
<path d="M20.6943 7.06322C20.7464 7.06325 20.798 7.05302 20.8461 7.0331C20.8942 7.01319 20.9379 6.98399 20.9748 6.94716C21.0116 6.91034 21.0408 6.86662 21.0607 6.8185C21.0806 6.77039 21.0908 6.71881 21.0908 6.66674V0.398437C21.0908 0.293283 21.049 0.192436 20.9747 0.118081C20.9003 0.0437255 20.7995 0.00195312 20.6943 0.00195312C20.5892 0.00195312 20.4883 0.0437255 20.414 0.118081C20.3396 0.192436 20.2979 0.293283 20.2979 0.398437V6.66674C20.2978 6.71881 20.3081 6.77039 20.328 6.8185C20.3479 6.86662 20.3771 6.91034 20.4139 6.94716C20.4507 6.98399 20.4945 7.01319 20.5426 7.0331C20.5907 7.05302 20.6423 7.06325 20.6943 7.06322Z" fill="#3C4043"/>
<path d="M22.6133 7.06322C22.7184 7.06322 22.8193 7.02145 22.8936 6.9471C22.968 6.87274 23.0098 6.77189 23.0098 6.66674V0.398437C23.0098 0.293283 22.968 0.192436 22.8936 0.118081C22.8193 0.0437255 22.7184 0.00195312 22.6133 0.00195312C22.5081 0.00195312 22.4073 0.0437255 22.3329 0.118081C22.2586 0.192436 22.2168 0.293283 22.2168 0.398437V6.66674C22.2168 6.71881 22.227 6.77039 22.2469 6.8185C22.2668 6.86662 22.296 6.91034 22.3329 6.94716C22.3697 6.98399 22.4134 7.01319 22.4615 7.0331C22.5096 7.05302 22.5612 7.06325 22.6133 7.06322Z" fill="#3C4043"/>
<path d="M24.5317 7.06322C24.5838 7.06325 24.6354 7.05302 24.6835 7.0331C24.7316 7.01319 24.7753 6.98399 24.8122 6.94716C24.849 6.91034 24.8782 6.86662 24.8981 6.8185C24.918 6.77039 24.9283 6.71881 24.9282 6.66674V0.398437C24.9282 0.293283 24.8864 0.192436 24.8121 0.118081C24.7377 0.0437255 24.6369 0.00195312 24.5317 0.00195312C24.4266 0.00195312 24.3257 0.0437255 24.2514 0.118081C24.177 0.192436 24.1353 0.293283 24.1353 0.398437V6.66674C24.1353 6.77189 24.177 6.87274 24.2514 6.9471C24.3257 7.02145 24.4266 7.06322 24.5317 7.06322Z" fill="#3C4043"/>
</svg>
