<svg width="14" height="22" viewBox="0 0 14 22" fill="none" xmlns="http://www.w3.org/2000/svg">
<path d="M8.61539 21.5437H4.30769C4.02207 21.5437 3.74816 21.4302 3.54619 21.2282C3.34423 21.0263 3.23077 20.7524 3.23077 20.4667V13.7898H1.07692C0.791305 13.7898 0.517386 13.6764 0.315424 13.4744C0.113461 13.2724 0 12.9985 0 12.7129V8.83598C0 8.55036 0.113461 8.27644 0.315424 8.07448C0.517386 7.87252 0.791305 7.75906 1.07692 7.75906H3.23077V5.92829C3.30626 4.28744 4.02836 2.74322 5.2392 1.63329C6.45004 0.523354 8.0511 -0.0620017 9.69231 0.00520943H12.9231C13.2087 0.00520943 13.4826 0.118671 13.6846 0.320633C13.8865 0.522595 14 0.796515 14 1.08213V4.95906C14 5.24467 13.8865 5.51859 13.6846 5.72056C13.4826 5.92252 13.2087 6.03598 12.9231 6.03598H9.69231V7.75906H12.9231C13.0894 7.7578 13.2537 7.79506 13.4031 7.86793C13.5526 7.94079 13.6832 8.04729 13.7846 8.17906C13.8849 8.31281 13.9527 8.46807 13.9826 8.63256C14.0125 8.79705 14.0037 8.96625 13.9569 9.12675L12.88 13.0037C12.8149 13.2366 12.6732 13.4408 12.4778 13.5835C12.2825 13.7261 12.0448 13.7988 11.8031 13.7898H9.69231V20.4667C9.69231 20.7524 9.57885 21.0263 9.37688 21.2282C9.17492 21.4302 8.901 21.5437 8.61539 21.5437ZM5.38462 19.3898H7.53846V12.7129C7.53846 12.4273 7.65192 12.1534 7.85389 11.9514C8.05585 11.7494 8.32977 11.636 8.61539 11.636H11.0277L11.5015 9.9129H8.61539C8.32977 9.9129 8.05585 9.79944 7.85389 9.59748C7.65192 9.39552 7.53846 9.1216 7.53846 8.83598V5.92829C7.56611 5.37592 7.80519 4.85536 8.20615 4.47444C8.60712 4.09352 9.13925 3.88144 9.69231 3.88213H11.8462V2.15906H9.69231C8.62272 2.09389 7.57057 2.45309 6.76413 3.15872C5.95769 3.86436 5.46201 4.85951 5.38462 5.92829V8.83598C5.38462 9.1216 5.27115 9.39552 5.06919 9.59748C4.86723 9.79944 4.59331 9.9129 4.30769 9.9129H2.15385V11.636H4.30769C4.59331 11.636 4.86723 11.7494 5.06919 11.9514C5.27115 12.1534 5.38462 12.4273 5.38462 12.7129V19.3898Z" fill="white"/>
</svg>
