<svg width="35" height="35" viewBox="0 0 35 35" fill="none" xmlns="http://www.w3.org/2000/svg">
<path d="M23.7999 16.2403H18.7585V11.1989C18.7585 11.053 18.6391 10.9336 18.4932 10.9336H16.9012C16.7552 10.9336 16.6358 11.053 16.6358 11.1989V16.2403H11.5944C11.4485 16.2403 11.3291 16.3597 11.3291 16.5057V18.0977C11.3291 18.2436 11.4485 18.363 11.5944 18.363H16.6358V23.4044C16.6358 23.5504 16.7552 23.6698 16.9012 23.6698H18.4932C18.6391 23.6698 18.7585 23.5504 18.7585 23.4044V18.363H23.7999C23.9459 18.363 24.0653 18.2436 24.0653 18.0977V16.5057C24.0653 16.3597 23.9459 16.2403 23.7999 16.2403Z" fill="#757575"/>
<path d="M17.6977 2.44434C9.49219 2.44434 2.83887 9.09766 2.83887 17.3032C2.83887 25.5088 9.49219 32.1621 17.6977 32.1621C25.9033 32.1621 32.5566 25.5088 32.5566 17.3032C32.5566 9.09766 25.9033 2.44434 17.6977 2.44434ZM17.6977 29.6414C10.8852 29.6414 5.35957 24.1157 5.35957 17.3032C5.35957 10.4907 10.8852 4.96504 17.6977 4.96504C24.5103 4.96504 30.0359 10.4907 30.0359 17.3032C30.0359 24.1157 24.5103 29.6414 17.6977 29.6414Z" fill="#757575"/>
</svg>
