<svg width="34" height="34" viewBox="0 0 34 34" fill="none" xmlns="http://www.w3.org/2000/svg">
<path d="M23.0841 15.9209H10.8786C10.7327 15.9209 10.6133 16.0403 10.6133 16.1862V17.7783C10.6133 17.9242 10.7327 18.0436 10.8786 18.0436H23.0841C23.2301 18.0436 23.3495 17.9242 23.3495 17.7783V16.1862C23.3495 16.0403 23.2301 15.9209 23.0841 15.9209Z" fill="#757575"/>
<path d="M16.9819 2.12207C8.77637 2.12207 2.12305 8.7754 2.12305 16.9809C2.12305 25.1865 8.77637 31.8398 16.9819 31.8398C25.1875 31.8398 31.8408 25.1865 31.8408 16.9809C31.8408 8.7754 25.1875 2.12207 16.9819 2.12207ZM16.9819 29.3191C10.1694 29.3191 4.64375 23.7935 4.64375 16.9809C4.64375 10.1684 10.1694 4.64277 16.9819 4.64277C23.7944 4.64277 29.3201 10.1684 29.3201 16.9809C29.3201 23.7935 23.7944 29.3191 16.9819 29.3191Z" fill="#757575"/>
</svg>
