<svg width="28" height="17" viewBox="0 0 28 17" fill="none" xmlns="http://www.w3.org/2000/svg">
<path d="M26.9047 2.51172H10.2229C9.76426 1.05353 8.47586 0 6.96103 0C5.4462 0 4.15779 1.05353 3.69917 2.51172H1.09527C0.490389 2.51172 0 3.03668 0 3.68421C0 4.33174 0.490389 4.8567 1.09527 4.8567H3.69924C4.15787 6.3149 5.44627 7.36842 6.9611 7.36842C8.47593 7.36842 9.76433 6.3149 10.223 4.8567H26.9047C27.5096 4.8567 28 4.33174 28 3.68421C28 3.03668 27.5096 2.51172 26.9047 2.51172ZM6.96103 5.02343C6.27123 5.02343 5.71001 4.42265 5.71001 3.68421C5.71001 2.94577 6.27123 2.34499 6.96103 2.34499C7.65083 2.34499 8.21204 2.94577 8.21204 3.68421C8.21204 4.42265 7.65083 5.02343 6.96103 5.02343Z" fill="#3C4043"/>
<path d="M26.9047 11.3535H24.3007C23.8421 9.89532 22.5536 8.8418 21.0388 8.8418C19.5241 8.8418 18.2357 9.89532 17.777 11.3535H1.09527C0.490389 11.3535 0 11.8785 0 12.526C0 13.1735 0.490389 13.6985 1.09527 13.6985H17.777C18.2357 15.1567 19.5241 16.2102 21.0389 16.2102C22.5537 16.2102 23.8421 15.1567 24.3008 13.6985H26.9047C27.5096 13.6985 28 13.1735 28 12.526C28 11.8785 27.5096 11.3535 26.9047 11.3535ZM21.0389 13.8652C20.3491 13.8652 19.7879 13.2644 19.7879 12.526C19.7879 11.7876 20.3491 11.1868 21.0389 11.1868C21.7287 11.1868 22.2899 11.7876 22.2899 12.526C22.2899 13.2644 21.7287 13.8652 21.0389 13.8652Z" fill="#3C4043"/>
</svg>
