<svg width="20" height="22" viewBox="0 0 20 22" fill="none" xmlns="http://www.w3.org/2000/svg">
<path d="M19.9892 11.108C19.9892 10.268 19.9202 9.65602 19.7732 9.02002H10.1992V12.81H15.8192C15.7062 13.753 15.0942 15.172 13.7352 16.125L13.7152 16.252L16.7432 18.601L16.9532 18.622C18.8792 16.84 19.9902 14.218 19.9902 11.108" fill="#4285F4"/>
<path d="M10.2008 21.0959C12.9538 21.0959 15.2648 20.1879 16.9538 18.6219L13.7358 16.1249C12.8738 16.7269 11.7188 17.1459 10.1998 17.1459C7.50284 17.1459 5.21484 15.3649 4.39884 12.9019L4.27884 12.9119L1.13084 15.3519L1.08984 15.4669C2.76684 18.8039 6.21184 21.0969 10.1998 21.0969L10.2008 21.0959Z" fill="#34A853"/>
<path d="M4.397 12.9021C4.17419 12.2518 4.05934 11.5695 4.057 10.8821C4.057 10.1781 4.182 9.49709 4.387 8.86209L4.38 8.72609L1.193 6.24609L1.089 6.29609C0.374407 7.71895 0.0015299 9.28887 0 10.8811C0 12.5271 0.397 14.0821 1.088 15.4671L4.396 12.9021" fill="#FBBC05"/>
<path d="M10.2008 4.61599C12.1148 4.61599 13.4068 5.44499 14.1428 6.13699L17.0218 3.32299C15.2538 1.67699 12.9538 0.666992 10.1998 0.666992C6.21184 0.666992 2.76684 2.95899 1.08984 6.29699L4.38684 8.85999C5.21484 6.39699 7.50284 4.61499 10.1998 4.61499" fill="#EB4335"/>
</svg>
