<svg width="32" height="25" viewBox="0 0 32 25" fill="none" xmlns="http://www.w3.org/2000/svg">
<path d="M5.8156 24.8762V23.2215C5.8156 22.5872 5.43143 22.1735 4.77286 22.1735C4.44357 22.1735 4.08684 22.2838 3.83988 22.6423C3.64779 22.339 3.37339 22.1735 2.96178 22.1735C2.68737 22.1735 2.41296 22.2562 2.19344 22.5596V22.2286H1.61719V24.8762H2.19344V23.4145C2.19344 22.9457 2.44041 22.7251 2.82457 22.7251C3.20874 22.7251 3.40083 22.9733 3.40083 23.4145V24.8762H3.97708V23.4145C3.97708 22.9457 4.25148 22.7251 4.60821 22.7251C4.99238 22.7251 5.18446 22.9733 5.18446 23.4145V24.8762H5.8156ZM14.3496 22.2286H13.4166V21.4289H12.8404V22.2286H12.319V22.7526H12.8404V23.9661C12.8404 24.5728 13.0874 24.9313 13.7459 24.9313C13.9929 24.9313 14.2673 24.8486 14.4594 24.7383L14.2947 24.2419C14.1301 24.3522 13.938 24.3798 13.8008 24.3798C13.5264 24.3798 13.4166 24.2143 13.4166 23.9385V22.7526H14.3496V22.2286ZM19.234 22.1735C18.9048 22.1735 18.6852 22.339 18.548 22.5596V22.2286H17.9718V24.8762H18.548V23.3869C18.548 22.9457 18.7401 22.6975 19.0968 22.6975C19.2066 22.6975 19.3438 22.7251 19.4536 22.7526L19.6182 22.2011C19.5085 22.1735 19.3438 22.1735 19.234 22.1735ZM11.8525 22.4493C11.5781 22.2562 11.194 22.1735 10.7823 22.1735C10.1238 22.1735 9.68472 22.5044 9.68472 23.0284C9.68472 23.4697 10.014 23.7179 10.5903 23.8006L10.8647 23.8282C11.1665 23.8834 11.3312 23.9661 11.3312 24.104C11.3312 24.297 11.1116 24.4349 10.7275 24.4349C10.3433 24.4349 10.0414 24.297 9.84936 24.1591L9.57496 24.6004C9.87681 24.821 10.2884 24.9313 10.7 24.9313C11.4684 24.9313 11.9074 24.5728 11.9074 24.0764C11.9074 23.6076 11.5507 23.3594 11.0019 23.2766L10.7275 23.2491C10.4805 23.2215 10.2884 23.1663 10.2884 23.0008C10.2884 22.8078 10.4805 22.6975 10.7823 22.6975C11.1116 22.6975 11.4409 22.8354 11.6056 22.9181L11.8525 22.4493ZM27.1644 22.1735C26.8351 22.1735 26.6156 22.339 26.4784 22.5596V22.2286H25.9021V24.8762H26.4784V23.3869C26.4784 22.9457 26.6704 22.6975 27.0272 22.6975C27.1369 22.6975 27.2741 22.7251 27.3839 22.7526L27.5485 22.2011C27.4388 22.1735 27.2741 22.1735 27.1644 22.1735ZM19.8103 23.5524C19.8103 24.3522 20.3591 24.9313 21.2098 24.9313C21.5939 24.9313 21.8683 24.8486 22.1427 24.628L21.8683 24.1591C21.6488 24.3246 21.4293 24.4073 21.1823 24.4073C20.7158 24.4073 20.3866 24.0764 20.3866 23.5524C20.3866 23.056 20.7158 22.7251 21.1823 22.6975C21.4293 22.6975 21.6488 22.7802 21.8683 22.9457L22.1427 22.4769C21.8683 22.2562 21.5939 22.1735 21.2098 22.1735C20.3591 22.1735 19.8103 22.7526 19.8103 23.5524ZM25.1338 23.5524V22.2286H24.5575V22.5596C24.3654 22.3114 24.091 22.1735 23.7343 22.1735C22.9934 22.1735 22.4172 22.7526 22.4172 23.5524C22.4172 24.3522 22.9934 24.9313 23.7343 24.9313C24.1185 24.9313 24.3929 24.7934 24.5575 24.5452V24.8762H25.1338V23.5524ZM23.0208 23.5524C23.0208 23.0836 23.3227 22.6975 23.8166 22.6975C24.2831 22.6975 24.6124 23.056 24.6124 23.5524C24.6124 24.0212 24.2831 24.4073 23.8166 24.4073C23.3227 24.3798 23.0208 24.0212 23.0208 23.5524ZM16.1333 22.1735C15.3649 22.1735 14.8161 22.7251 14.8161 23.5524C14.8161 24.3798 15.3649 24.9313 16.1607 24.9313C16.5449 24.9313 16.929 24.821 17.2309 24.5728L16.9565 24.1591C16.737 24.3246 16.4625 24.4349 16.1881 24.4349C15.8314 24.4349 15.4747 24.2695 15.3924 23.8006H17.3406V23.58C17.3681 22.7251 16.8742 22.1735 16.1333 22.1735ZM16.1333 22.6699C16.49 22.6699 16.737 22.8905 16.7918 23.3042H15.4198C15.4747 22.9457 15.7217 22.6699 16.1333 22.6699ZM30.4298 23.5524V21.1807H29.8536V22.5596C29.6615 22.3114 29.3871 22.1735 29.0303 22.1735C28.2894 22.1735 27.7132 22.7526 27.7132 23.5524C27.7132 24.3522 28.2894 24.9313 29.0303 24.9313C29.4145 24.9313 29.6889 24.7934 29.8536 24.5452V24.8762H30.4298V23.5524ZM28.3169 23.5524C28.3169 23.0836 28.6187 22.6975 29.1127 22.6975C29.5792 22.6975 29.9084 23.056 29.9084 23.5524C29.9084 24.0212 29.5792 24.4073 29.1127 24.4073C28.6187 24.3798 28.3169 24.0212 28.3169 23.5524ZM9.05359 23.5524V22.2286H8.47734V22.5596C8.28525 22.3114 8.01085 22.1735 7.65412 22.1735C6.91322 22.1735 6.33697 22.7526 6.33697 23.5524C6.33697 24.3522 6.91322 24.9313 7.65412 24.9313C8.03829 24.9313 8.31269 24.7934 8.47734 24.5452V24.8762H9.05359V23.5524ZM6.91322 23.5524C6.91322 23.0836 7.21507 22.6975 7.709 22.6975C8.17549 22.6975 8.50478 23.056 8.50478 23.5524C8.50478 24.0212 8.17549 24.4073 7.709 24.4073C7.21507 24.3798 6.91322 24.0212 6.91322 23.5524Z" fill="#3C4043"/>
<path d="M20.3079 2.12402H11.6641V17.7334H20.3079V2.12402Z" fill="#FF5F00"/>
<path d="M12.2111 9.92826C12.2111 6.75673 13.6929 3.94372 15.9704 2.12354C14.2965 0.799776 12.1836 0 9.87861 0C4.41794 0 0 4.44014 0 9.92826C0 15.4164 4.41794 19.8565 9.87861 19.8565C12.1836 19.8565 14.2965 19.0567 15.9704 17.733C13.6929 15.9404 12.2111 13.0998 12.2111 9.92826Z" fill="#EB001B"/>
<path d="M31.9665 9.92826C31.9665 15.4164 27.5486 19.8565 22.0879 19.8565C19.7829 19.8565 17.67 19.0567 15.9961 17.733C18.3011 15.9128 19.7555 13.0998 19.7555 9.92826C19.7555 6.75673 18.2737 3.94372 15.9961 2.12354C17.67 0.799776 19.7829 0 22.0879 0C27.5486 0 31.9665 4.46772 31.9665 9.92826Z" fill="#F79E1B"/>
</svg>
