<svg width="16" height="18" viewBox="0 0 16 18" fill="none" xmlns="http://www.w3.org/2000/svg">
<path d="M15.5811 11.8862L13.9794 10.2573V6.24355C14.0008 4.75308 13.4882 3.30515 12.5363 2.1671C11.5844 1.02905 10.2576 0.277752 8.80082 0.0519242C7.95534 -0.0606886 7.09584 0.0103601 6.27967 0.26033C5.46349 0.510299 4.70941 0.933441 4.06773 1.50152C3.42606 2.0696 2.91155 2.76956 2.55853 3.55469C2.20551 4.33982 2.02211 5.19206 2.02055 6.05456V10.2573L0.418913 11.8862C0.217735 12.0931 0.0813092 12.3553 0.0266904 12.6402C-0.0279284 12.925 0.00168351 13.2199 0.111824 13.4878C0.221965 13.7557 0.407747 13.9849 0.645946 14.1466C0.884146 14.3083 1.16419 14.3954 1.45108 14.3971H4.4408V14.703C4.48237 15.6167 4.88032 16.4764 5.54747 17.0938C6.21462 17.7112 7.09655 18.0359 8 17.9968C8.90345 18.0359 9.78538 17.7112 10.4525 17.0938C11.1197 16.4764 11.5176 15.6167 11.5592 14.703V14.3971H14.5489C14.8358 14.3954 15.1159 14.3083 15.3541 14.1466C15.5923 13.9849 15.778 13.7557 15.8882 13.4878C15.9983 13.2199 16.0279 12.925 15.9733 12.6402C15.9187 12.3553 15.7823 12.0931 15.5811 11.8862ZM9.7796 14.703C9.73025 15.1359 9.51768 15.5328 9.18617 15.8111C8.85465 16.0894 8.42976 16.2276 8 16.197C7.57024 16.2276 7.14535 16.0894 6.81383 15.8111C6.48232 15.5328 6.26975 15.1359 6.2204 14.703V14.3971H9.7796V14.703ZM2.22521 12.5972L3.27517 11.5352C3.44171 11.3678 3.57384 11.1687 3.66394 10.9493C3.75404 10.73 3.80034 10.4948 3.80015 10.2573V6.05456C3.80063 5.44746 3.92951 4.84749 4.17813 4.29491C4.42675 3.74233 4.78936 3.24993 5.24162 2.85076C5.68778 2.44189 6.21646 2.13597 6.79107 1.95417C7.36567 1.77236 7.97247 1.71902 8.56947 1.79782C9.59851 1.96681 10.5325 2.50609 11.1996 3.31637C11.8667 4.12665 12.2219 5.15339 12.1998 6.20755V10.2573C12.1985 10.4942 12.2434 10.729 12.3319 10.9483C12.4205 11.1676 12.551 11.367 12.7159 11.5352L13.7748 12.5972H2.22521Z" fill="#3C4043"/>
</svg>
