<svg width="21" height="22" viewBox="0 0 21 22" fill="none" xmlns="http://www.w3.org/2000/svg">
<path d="M10.4414 19.5176C11.2617 19.5176 12.0508 19.4121 12.8086 19.2012C13.5664 18.9902 14.2813 18.6895 14.9531 18.2988C15.625 17.9082 16.2266 17.4434 16.7578 16.9043C17.2891 16.3652 17.7539 15.7598 18.1523 15.0879C18.5508 14.416 18.8516 13.7051 19.0547 12.9551C19.2578 12.2051 19.3672 11.4121 19.3828 10.5762C19.3828 9.75586 19.2773 8.9668 19.0664 8.20898C18.8555 7.45117 18.5547 6.73633 18.1641 6.06445C17.7734 5.39258 17.3086 4.79102 16.7695 4.25977C16.2305 3.72852 15.625 3.26367 14.9531 2.86523C14.2813 2.4668 13.5703 2.16601 12.8203 1.96289C12.0703 1.75976 11.2773 1.65039 10.4414 1.63476C9.6211 1.63476 8.83203 1.74023 8.07422 1.95117C7.31641 2.16211 6.60156 2.46289 5.92969 2.85351C5.25781 3.24414 4.65625 3.70898 4.125 4.24805C3.59375 4.78711 3.12891 5.39258 2.73047 6.06445C2.33203 6.73633 2.03125 7.44726 1.82813 8.19726C1.625 8.94726 1.51563 9.74023 1.5 10.5762C1.5 11.3965 1.60547 12.1855 1.81641 12.9434C2.02734 13.7012 2.32813 14.4121 2.71875 15.0762C3.10938 15.7402 3.57813 16.3457 4.125 16.8926C4.67188 17.4395 5.27344 17.9043 5.92969 18.2871C6.58594 18.6699 7.29688 18.9707 8.0625 19.1895C8.82813 19.4082 9.62109 19.5176 10.4414 19.5176ZM10.4414 21.0176C9.48047 21.0176 8.55859 20.8926 7.67578 20.6426C6.79297 20.3926 5.96094 20.041 5.17969 19.5879C4.39844 19.1348 3.69531 18.5918 3.07031 17.959C2.44531 17.3262 1.89844 16.6191 1.42969 15.8379C0.960938 15.0566 0.609376 14.2285 0.375001 13.3535C0.140626 12.4785 0.0156258 11.5527 9.12817e-07 10.5762C9.96825e-07 9.61523 0.125001 8.69336 0.375001 7.81055C0.625001 6.92773 0.976564 6.0957 1.42969 5.31445C1.88281 4.5332 2.42578 3.83008 3.0586 3.20508C3.69141 2.58008 4.39844 2.0332 5.17969 1.56445C5.96094 1.0957 6.78906 0.744139 7.66406 0.509764C8.53906 0.27539 9.46485 0.15039 10.4414 0.134765C11.4023 0.134765 12.3242 0.259765 13.207 0.509765C14.0898 0.759765 14.9219 1.11133 15.7031 1.56445C16.4844 2.01758 17.1875 2.56055 17.8125 3.19336C18.4375 3.82617 18.9844 4.5332 19.4531 5.31445C19.9219 6.0957 20.2734 6.92383 20.5078 7.79883C20.7422 8.67383 20.8672 9.59961 20.8828 10.5762C20.8828 11.5371 20.7578 12.459 20.5078 13.3418C20.2578 14.2246 19.9063 15.0566 19.4531 15.8379C19 16.6191 18.457 17.3223 17.8242 17.9473C17.1914 18.5723 16.4844 19.1191 15.7031 19.5879C14.9219 20.0566 14.0938 20.4082 13.2188 20.6426C12.3438 20.877 11.418 21.002 10.4414 21.0176ZM11.4727 5.11523L12.5273 6.16992L8.19141 10.5176L12.5273 14.8652L11.4727 15.9199L6.07031 10.5176L11.4727 5.11523Z" fill="#BDC1CA"/>
</svg>
