<svg width="22" height="22" viewBox="0 0 22 22" fill="none" xmlns="http://www.w3.org/2000/svg">
<path d="M10.7139 1.63477C9.89355 1.63477 9.10449 1.74023 8.34668 1.95117C7.58887 2.16211 6.87402 2.46289 6.20215 2.85352C5.53027 3.24414 4.92871 3.70898 4.39746 4.24805C3.86621 4.78711 3.40137 5.39258 3.00293 6.06445C2.60449 6.73633 2.30371 7.44727 2.10059 8.19727C1.89746 8.94727 1.78809 9.74023 1.77246 10.5762C1.77246 11.3965 1.87793 12.1855 2.08887 12.9434C2.2998 13.7012 2.60059 14.416 2.99121 15.0879C3.38184 15.7598 3.84668 16.3613 4.38574 16.8926C4.9248 17.4238 5.53027 17.8887 6.20215 18.2871C6.87402 18.6855 7.58496 18.9863 8.33496 19.1895C9.08496 19.3926 9.87793 19.502 10.7139 19.5176C11.5342 19.5176 12.3232 19.4121 13.0811 19.2012C13.8389 18.9902 14.5537 18.6895 15.2256 18.2988C15.8975 17.9082 16.499 17.4434 17.0303 16.9043C17.5615 16.3652 18.0264 15.7598 18.4248 15.0879C18.8232 14.416 19.124 13.7051 19.3271 12.9551C19.5303 12.2051 19.6396 11.4121 19.6553 10.5762C19.6553 9.75586 19.5498 8.9668 19.3389 8.20898C19.1279 7.45117 18.8271 6.74023 18.4365 6.07617C18.0459 5.41211 17.5771 4.80664 17.0303 4.25977C16.4834 3.71289 15.8818 3.24805 15.2256 2.86523C14.5693 2.48242 13.8584 2.18164 13.0928 1.96289C12.3271 1.74414 11.5342 1.63477 10.7139 1.63477ZM10.7139 0.134766C11.6748 0.134766 12.5967 0.259766 13.4795 0.509766C14.3623 0.759766 15.1943 1.11133 15.9756 1.56445C16.7568 2.01758 17.46 2.56055 18.085 3.19336C18.71 3.82617 19.2568 4.5332 19.7256 5.31445C20.1943 6.0957 20.5459 6.92383 20.7803 7.79883C21.0146 8.67383 21.1396 9.59961 21.1553 10.5762C21.1553 11.5371 21.0303 12.459 20.7803 13.3418C20.5303 14.2246 20.1787 15.0566 19.7256 15.8379C19.2725 16.6191 18.7295 17.3223 18.0967 17.9473C17.4639 18.5723 16.7568 19.1191 15.9756 19.5879C15.1943 20.0566 14.3662 20.4082 13.4912 20.6426C12.6162 20.877 11.6904 21.002 10.7139 21.0176C9.75293 21.0176 8.83105 20.8926 7.94824 20.6426C7.06543 20.3926 6.2334 20.041 5.45215 19.5879C4.6709 19.1348 3.96777 18.5918 3.34277 17.959C2.71777 17.3262 2.1709 16.6191 1.70215 15.8379C1.2334 15.0566 0.881836 14.2285 0.647461 13.3535C0.413086 12.4785 0.288086 11.5527 0.272461 10.5762C0.272461 9.61523 0.397461 8.69336 0.647461 7.81055C0.897461 6.92773 1.24902 6.0957 1.70215 5.31445C2.15527 4.5332 2.69824 3.83008 3.33105 3.20508C3.96387 2.58008 4.6709 2.0332 5.45215 1.56445C6.2334 1.0957 7.06152 0.744141 7.93652 0.509766C8.81152 0.275391 9.7373 0.150391 10.7139 0.134766ZM9.68262 16.0371L8.62793 14.9824L12.9639 10.6348L8.62793 6.28711L9.68262 5.23242L15.085 10.6348L9.68262 16.0371Z" fill="#BDC1CA"/>
</svg>
