<svg width="29" height="25" viewBox="0 0 29 25" fill="none" xmlns="http://www.w3.org/2000/svg">
<path d="M24.2411 2.35547H22.8256C22.6143 2.35547 22.4805 2.48931 22.4805 2.6372H22.4805V7.21484C22.4805 7.40498 22.7058 7.50359 22.9382 7.50359C23.1636 7.50359 23.396 7.40503 23.396 7.21484V5.58098H24.1848C25.1144 5.58098 25.8398 5.13726 25.8398 3.9823V3.9401C25.8398 2.78509 25.1356 2.35547 24.2411 2.35547ZM24.9242 4.05276C24.9242 4.60206 24.6426 4.86267 24.1848 4.86267H23.396V3.15835H24.1848C24.6426 3.15835 24.9242 3.41895 24.9242 3.96825V4.05276Z" fill="#3C4043"/>
<path d="M16.5996 4.14548C15.2627 2.80854 13.4852 2.07227 11.5944 2.07227C9.70373 2.07227 7.92623 2.80854 6.58929 4.14548C6.42792 4.30679 6.42792 4.56836 6.58929 4.72973C6.7506 4.89104 7.01217 4.89104 7.17348 4.72973C8.35438 3.54889 9.9244 2.89854 11.5944 2.89854C13.2644 2.89854 14.8345 3.54889 16.0153 4.72973C16.096 4.81038 16.2018 4.85071 16.3075 4.85071C16.4131 4.85071 16.5189 4.81038 16.5996 4.72973C16.7609 4.56842 16.7609 4.30679 16.5996 4.14548Z" fill="#3C4043"/>
<path d="M14.8955 5.84944C13.0754 4.02935 10.1139 4.02935 8.29388 5.84944C8.13251 6.01075 8.13251 6.27238 8.29388 6.43369C8.45519 6.595 8.71681 6.595 8.87813 6.43369C10.376 4.93583 12.8133 4.93583 14.3112 6.43369C14.3919 6.51435 14.4976 6.55467 14.6033 6.55467C14.709 6.55467 14.8147 6.51435 14.8955 6.43369C15.0568 6.27238 15.0568 6.01075 14.8955 5.84944Z" fill="#3C4043"/>
<path d="M13.2179 7.52683C12.3228 6.63168 10.8663 6.63168 9.97112 7.52683C9.80976 7.68814 9.80976 7.94971 9.97112 8.11108C10.1324 8.27245 10.3941 8.27239 10.5554 8.11108C11.1284 7.5381 12.0607 7.5381 12.6337 8.11108C12.7144 8.19179 12.8201 8.23206 12.9258 8.23206C13.0315 8.23206 13.1373 8.19173 13.2179 8.11108C13.3793 7.94971 13.3793 7.6882 13.2179 7.52683Z" fill="#3C4043"/>
<path d="M20.3298 15.5735C20.151 15.4751 19.9747 15.3674 19.8057 15.2532L17.073 13.4072C16.2437 12.8469 15.2763 12.5508 14.2754 12.5508H9.25985C7.92852 12.5508 6.67585 13.0683 5.73256 14.008C5.24772 14.4911 4.69536 14.8951 4.09083 15.209C3.73332 15.3947 3.51123 15.7601 3.51123 16.1626C3.51123 16.7554 3.99347 17.2377 4.58627 17.2377H6.29625C6.5244 17.2377 6.70939 17.0527 6.70939 16.8245C6.70939 16.5964 6.5244 16.4114 6.29625 16.4114H4.58627C4.44909 16.4114 4.33745 16.2998 4.33745 16.1626C4.33745 16.0696 4.38882 15.9852 4.47157 15.9423C5.15075 15.5897 5.77125 15.1357 6.31568 14.5933C7.10298 13.8089 8.14857 13.377 9.2598 13.377H10.3827V16.4114H9.01018C8.78203 16.4114 8.59705 16.5964 8.59705 16.8245C8.59705 17.0527 8.78203 17.2377 9.01018 17.2377H20.3382C20.6778 17.2377 20.9541 16.9614 20.9541 16.6218C20.9541 16.1869 20.7148 15.7852 20.3298 15.5735ZM11.2091 16.4115V13.3771H14.2755C15.1109 13.3771 15.9184 13.6242 16.6106 14.0919L19.3432 15.9379C19.5329 16.0661 19.7309 16.1871 19.9317 16.2975C19.9837 16.3261 20.0273 16.3654 20.06 16.4115H11.2091Z" fill="#3C4043"/>
<path d="M12.2327 17.8652H10.9566C10.7284 17.8652 10.5435 18.0502 10.5435 18.2784C10.5435 18.5065 10.7284 18.6915 10.9566 18.6915H12.2327C12.4609 18.6915 12.6458 18.5065 12.6458 18.2784C12.6458 18.0502 12.4609 17.8652 12.2327 17.8652Z" fill="#3C4043"/>
<path d="M28.6437 17.5187L28.5132 17.3021C28.0214 16.486 27.2033 15.9113 26.2688 15.7254L25.2022 15.5133V10.1071H27.9624C28.5307 10.1071 28.993 9.64476 28.993 9.07649V1.03063C28.993 0.462301 28.5307 0 27.9624 0H19.9165C19.3482 0 18.8859 0.462357 18.8859 1.03063V4.08271C18.8859 4.31086 19.0708 4.49585 19.299 4.49585C19.5272 4.49585 19.7122 4.31086 19.7122 4.08271V1.03063C19.7122 0.917917 19.8039 0.826216 19.9166 0.826216H27.9625C28.0752 0.826216 28.1669 0.917917 28.1669 1.03063V9.07654C28.1669 9.18926 28.0752 9.28096 27.9625 9.28096H19.9165C19.8038 9.28096 19.7121 9.18926 19.7121 9.07654V6.76849C19.7121 6.54035 19.5272 6.35536 19.299 6.35536C19.0708 6.35536 18.8858 6.54035 18.8858 6.76849V9.07654C18.8858 9.64487 19.3482 10.1072 19.9165 10.1072H23.0465V15.0847L22.4982 14.9757C21.7415 14.8252 21.0037 14.3685 20.5146 14.038L17.782 12.192C16.7424 11.4897 15.5298 11.1185 14.2752 11.1185H9.25966C7.59075 11.1185 6.0205 11.7672 4.83824 12.945C4.09013 13.6904 3.14842 14.1987 2.1149 14.4152L1.52176 14.5394C0.639982 14.7241 0 15.512 0 16.413V20.4141C0 20.8913 0.281787 21.325 0.717976 21.5188L2.3635 22.2502C2.46302 22.7705 2.71371 23.2674 3.11574 23.6695C3.65003 24.2038 4.35187 24.4709 5.05376 24.4709C5.75565 24.4709 6.45742 24.2038 6.99177 23.6695C7.33541 23.3258 7.56786 22.9128 7.69049 22.4751H21.4109C21.5335 22.9128 21.766 23.3258 22.1097 23.6695C22.6274 24.1871 23.3155 24.4723 24.0477 24.4723C24.7798 24.4723 25.468 24.1872 25.9857 23.6695C26.3294 23.3258 26.5618 22.9128 26.6845 22.4751H27.4682C28.3129 22.4751 29.0001 21.7879 29.0001 20.9432V18.8004C29 18.3487 28.8767 17.9056 28.6437 17.5187ZM23.8728 10.1071H24.376V15.349L23.8728 15.2489V10.1071ZM6.40747 23.0853C6.04587 23.4469 5.56511 23.646 5.0537 23.646C4.54229 23.646 4.06153 23.4469 3.69993 23.0853C3.11988 22.5052 2.99085 21.6427 3.31223 20.9366C3.31483 20.9309 3.31733 20.9252 3.31993 20.9195C3.32973 20.8986 3.3401 20.8778 3.35069 20.8572C3.35567 20.8475 3.36066 20.8378 3.36587 20.8282C3.37544 20.8103 3.38541 20.7925 3.3956 20.7748C3.40263 20.7626 3.40982 20.7506 3.41713 20.7386C3.42659 20.723 3.43616 20.7075 3.44613 20.6921C3.45513 20.6782 3.46442 20.6645 3.47382 20.6509C3.48311 20.6373 3.49235 20.6237 3.50197 20.6104C3.51302 20.5952 3.52452 20.5802 3.53607 20.5653C3.54508 20.5536 3.55386 20.5418 3.56315 20.5303C3.57674 20.5135 3.59096 20.4971 3.60512 20.4807C3.61322 20.4713 3.62098 20.4618 3.62925 20.4525C3.65032 20.4291 3.67201 20.4062 3.69433 20.3837C3.69625 20.3818 3.69801 20.3797 3.69993 20.3778C3.70418 20.3736 3.70866 20.3696 3.71296 20.3654C3.73188 20.3468 3.75091 20.3285 3.77034 20.3109C3.77538 20.3063 3.7807 20.302 3.7858 20.2975C3.80517 20.2803 3.82466 20.2633 3.84459 20.247C3.84646 20.2455 3.84845 20.2441 3.85031 20.2426C4.55056 19.6759 5.56052 19.6765 6.25992 20.2448C6.26071 20.2455 6.26156 20.2461 6.26241 20.2467C6.28376 20.2641 6.30467 20.2824 6.32545 20.3008C6.32919 20.3041 6.33304 20.3072 6.33672 20.3106C6.36074 20.3323 6.3843 20.3546 6.40741 20.3778C6.43233 20.4027 6.45635 20.4283 6.47968 20.4543C6.48994 20.4658 6.49962 20.4775 6.50953 20.4891C6.52166 20.5033 6.53383 20.5175 6.5455 20.5319C6.55858 20.5482 6.57122 20.5647 6.58368 20.5813C6.5907 20.5905 6.59767 20.5998 6.60446 20.6091C6.61959 20.63 6.63431 20.651 6.64853 20.6724C6.65097 20.676 6.65334 20.6797 6.65572 20.6833C7.1417 21.4256 7.059 22.4337 6.40747 23.0853ZM25.4014 23.0853C25.0397 23.4469 24.559 23.646 24.0476 23.646C23.5362 23.646 23.0554 23.4469 22.6938 23.0853C22.0422 22.4337 21.9595 21.4254 22.4455 20.6832C22.4479 20.6797 22.4502 20.6761 22.4526 20.6726C22.4668 20.6512 22.4816 20.63 22.4967 20.6091C22.5035 20.5998 22.5104 20.5906 22.5174 20.5815C22.5299 20.5648 22.5426 20.5482 22.5558 20.5319C22.5674 20.5175 22.5794 20.5035 22.5914 20.4895C22.6015 20.4777 22.6113 20.4658 22.6216 20.4543C22.645 20.4283 22.669 20.4027 22.6939 20.3778C23.0555 20.0162 23.5362 19.8171 24.0476 19.8171C24.559 19.8171 25.0398 20.0162 25.4014 20.3778C25.4263 20.4027 25.4503 20.4284 25.4737 20.4544C25.484 20.4658 25.4937 20.4776 25.5036 20.4893C25.5157 20.5034 25.5279 20.5175 25.5395 20.5319C25.5526 20.5482 25.5652 20.5648 25.5778 20.5814C25.5847 20.5906 25.5917 20.5998 25.5985 20.6092C25.6136 20.6301 25.6284 20.6511 25.6426 20.6725C25.645 20.6761 25.6474 20.6797 25.6498 20.6833C26.1356 21.4256 26.0529 22.4338 25.4014 23.0853ZM28.1739 20.9432H28.1738C28.1738 21.3323 27.8572 21.6489 27.4681 21.6489H26.7879C26.7717 21.0497 26.5602 20.478 26.1796 20.0093C26.1771 20.0061 26.1746 20.0029 26.172 19.9997C26.1485 19.971 26.1241 19.9428 26.0993 19.9148C26.0929 19.9077 26.0869 19.9003 26.0805 19.8932C26.0542 19.8643 26.027 19.8359 25.9994 19.8079C25.9947 19.8031 25.9904 19.7982 25.9856 19.7935C25.6297 19.4376 25.1932 19.1916 24.7172 19.0726C24.5009 19.0186 24.2764 18.9907 24.0476 18.9907C23.8646 18.9907 23.6843 19.0086 23.5087 19.0434C22.982 19.1478 22.4978 19.4052 22.1095 19.7935C22.1049 19.7981 22.1007 19.803 22.0961 19.8077C22.0683 19.8358 22.041 19.8643 22.0147 19.8933C22.0084 19.9002 22.0027 19.9073 21.9965 19.9142C21.9715 19.9424 21.9468 19.9709 21.9231 19.9999C21.9207 20.0027 21.9185 20.0057 21.9161 20.0087C21.5352 20.4774 21.3235 21.0495 21.3072 21.6489H7.79403C7.77777 21.0487 7.5656 20.476 7.18373 20.0069C7.18197 20.0047 7.18027 20.0025 7.17852 20.0002C7.15359 19.9698 7.12771 19.9399 7.10137 19.9104C7.0965 19.9049 7.09197 19.8993 7.08704 19.8939C7.05617 19.8598 7.02445 19.8263 6.99166 19.7935C6.8581 19.66 6.71401 19.543 6.56215 19.4428C6.10642 19.1423 5.58006 18.992 5.0537 18.992C4.35187 18.992 3.64998 19.2592 3.11569 19.7935C3.08516 19.824 3.05565 19.8554 3.02676 19.8871C3.01821 19.8965 3.00999 19.9061 3.00156 19.9155C2.98116 19.9386 2.96111 19.9618 2.94157 19.9854C2.93291 19.9959 2.92424 20.0064 2.91574 20.0171C2.89552 20.0423 2.87581 20.0678 2.85656 20.0935C2.85055 20.1016 2.84438 20.1095 2.83854 20.1175C2.78677 20.1884 2.73874 20.2615 2.69434 20.3364C2.69309 20.3385 2.6919 20.3407 2.69065 20.3428C2.66896 20.3796 2.64817 20.417 2.62829 20.4548C2.62773 20.4559 2.62716 20.457 2.62654 20.4581C2.4825 20.7322 2.38565 21.0286 2.34124 21.3361L1.05363 20.7638C0.915539 20.7024 0.82633 20.5651 0.82633 20.4141V16.413C0.82633 15.9009 1.19013 15.453 1.69134 15.348L2.28449 15.2238C3.47507 14.9744 4.55985 14.3888 5.42158 13.5303C6.44791 12.5078 7.81102 11.9447 9.25983 11.9447H14.2754C15.3645 11.9447 16.4172 12.2669 17.3197 12.8766L20.0522 14.7225C20.6006 15.093 21.434 15.6063 22.3372 15.786L26.1077 16.5358C26.8147 16.6764 27.4335 17.1111 27.8056 17.7285L27.9361 17.9451C28.0917 18.2032 28.1739 18.499 28.1739 18.8004V20.9432Z" fill="#3C4043"/>
<path d="M5.94099 20.8449C5.70401 20.608 5.38908 20.4775 5.05405 20.4775C4.71902 20.4775 4.40405 20.608 4.16718 20.8449C3.9303 21.0818 3.7998 21.3968 3.7998 21.7318C3.7998 22.0668 3.9303 22.3818 4.16718 22.6187C4.40405 22.8555 4.71902 22.986 5.05411 22.986C5.38914 22.986 5.70412 22.8556 5.94099 22.6187C6.43002 22.1296 6.43002 21.3339 5.94099 20.8449ZM5.35668 22.0344C5.27586 22.1152 5.16835 22.1598 5.05405 22.1598C4.9397 22.1598 4.83225 22.1152 4.75142 22.0344C4.6706 21.9535 4.62602 21.8461 4.62602 21.7317C4.62602 21.6174 4.67054 21.5099 4.75142 21.4291C4.83225 21.3483 4.9397 21.3037 5.05405 21.3037C5.16835 21.3037 5.27586 21.3482 5.35668 21.4291C5.52355 21.596 5.52355 21.8676 5.35668 22.0344Z" fill="#3C4043"/>
<path d="M24.9345 20.845C24.6977 20.608 24.3827 20.4775 24.0476 20.4775C23.7126 20.4775 23.3977 20.608 23.1607 20.8449C22.6717 21.3339 22.6717 22.1296 23.1607 22.6187C23.3976 22.8556 23.7126 22.986 24.0476 22.986C24.3827 22.986 24.6976 22.8556 24.9345 22.6187C25.1714 22.3819 25.3019 22.0669 25.3019 21.7318C25.3019 21.3968 25.1714 21.0818 24.9345 20.845ZM24.3502 22.0345C24.2694 22.1153 24.162 22.1598 24.0476 22.1598C23.9333 22.1598 23.8258 22.1153 23.745 22.0345C23.5781 21.8676 23.5781 21.5961 23.745 21.4292C23.8258 21.3484 23.9333 21.3038 24.0476 21.3038C24.162 21.3038 24.2694 21.3483 24.3503 21.4292C24.4311 21.51 24.4756 21.6175 24.4756 21.7318C24.4756 21.8461 24.4312 21.9536 24.3502 22.0345Z" fill="#3C4043"/>
</svg>
