<svg width="19" height="17" viewBox="0 0 19 17" fill="none" xmlns="http://www.w3.org/2000/svg">
<path d="M16.0847 2.47458H14.8475V0H3.71186V2.47458H2.47458C1.81828 2.47458 1.18886 2.73529 0.724786 3.19936C0.260713 3.66344 0 4.29285 0 4.94915V11.7542H2.42508V10.5726H1.23729V4.94915C1.23729 4.621 1.36764 4.30629 1.59968 4.07426C1.83172 3.84222 2.14643 3.71186 2.47458 3.71186H16.0847C16.4129 3.71186 16.7276 3.84222 16.9596 4.07426C17.1917 4.30629 17.322 4.621 17.322 4.94915V10.5169H16.1342V11.7542H18.5593V4.94915C18.5593 4.29285 18.2986 3.66344 17.8345 3.19936C17.3705 2.73529 16.741 2.47458 16.0847 2.47458ZM13.6102 2.47458H4.94915V1.23729H13.6102V2.47458Z" fill="white"/>
<path d="M15.4642 8.04199H3.0913C2.92723 8.04199 2.76987 8.10717 2.65385 8.22319C2.53783 8.33921 2.47266 8.49656 2.47266 8.66064C2.47266 8.82471 2.53783 8.98207 2.65385 9.09808C2.76987 9.2141 2.92723 9.27928 3.0913 9.27928H3.70994V16.703H14.8455V9.27928H15.4642C15.6283 9.27928 15.7856 9.2141 15.9016 9.09808C16.0176 8.98207 16.0828 8.82471 16.0828 8.66064C16.0828 8.49656 16.0176 8.33921 15.9016 8.22319C15.7856 8.10717 15.6283 8.04199 15.4642 8.04199ZM13.6083 15.4657H4.94723V9.27928H13.6083V15.4657Z" fill="white"/>
<path d="M14.8477 4.97363H16.0849V6.21092H14.8477V4.97363Z" fill="white"/>
</svg>
