<svg width="35" height="25" viewBox="0 0 35 25" fill="none" xmlns="http://www.w3.org/2000/svg">
<path d="M30.1786 17.0456C30.1786 19.6822 29.5813 21.6185 28.3865 22.8544C27.233 24.0492 25.4203 24.6465 22.9485 24.6465C19.1995 24.6465 17.325 22.8132 17.325 19.1466C17.325 12.9258 18.8081 8.35288 21.7743 5.42785C24.7818 2.46162 29.0251 0.978505 34.5044 0.978505L33.7628 5.42785C32.2797 5.42785 30.5494 6.06641 28.5719 7.34354C26.6356 8.57946 25.4615 10.3304 25.0495 12.5962C28.4689 12.5962 30.1786 14.0793 30.1786 17.0456ZM13.4936 17.0456C13.4936 19.6822 12.8962 21.6185 11.7015 22.8544C10.548 24.0492 8.73529 24.6465 6.26343 24.6465C2.51445 24.6465 0.639959 22.8132 0.639959 19.1466C0.639959 12.9258 2.12307 8.35288 5.0893 5.42785C8.09672 2.46162 12.3401 0.978505 17.8194 0.978505L17.0778 5.42785C15.5947 5.42785 13.8644 6.06641 11.8869 7.34354C9.95062 8.57946 8.77649 10.3304 8.36451 12.5962C11.7839 12.5962 13.4936 14.0793 13.4936 17.0456Z" fill="#C221CF"/>
</svg>
