<svg width="18" height="18" viewBox="0 0 18 18" fill="none" xmlns="http://www.w3.org/2000/svg">
<path d="M17.3212 9.89842V8.66113H13.6094V14.8476H14.8467V12.373H16.7026V11.1357H14.8467V9.89842H17.3212Z" fill="white"/>
<path d="M10.5175 14.8476H8.04297V8.66113H10.5175C11.0096 8.66162 11.4814 8.85732 11.8293 9.20527C12.1773 9.55321 12.373 10.025 12.3735 10.5171V12.9916C12.373 13.4837 12.1773 13.9555 11.8293 14.3034C11.4814 14.6514 11.0096 14.8471 10.5175 14.8476ZM9.28026 13.6103H10.5175C10.6816 13.6101 10.8388 13.5449 10.9548 13.4289C11.0708 13.3129 11.136 13.1557 11.1362 12.9916V10.5171C11.136 10.353 11.0708 10.1958 10.9548 10.0798C10.8388 9.96382 10.6816 9.89858 10.5175 9.89842H9.28026V13.6103Z" fill="white"/>
<path d="M5.56588 8.66113H2.47266V14.8476H3.70994V12.9916H5.56588C5.89388 12.9912 6.2083 12.8606 6.44023 12.6287C6.67216 12.3968 6.80267 12.0824 6.80316 11.7544V9.89842C6.80284 9.57037 6.67238 9.25585 6.44041 9.02389C6.20844 8.79192 5.89393 8.66146 5.56588 8.66113ZM3.70994 11.7544V9.89842H5.56588L5.5665 11.7544H3.70994Z" fill="white"/>
<path d="M12.3729 7.42394V4.94936C12.3751 4.86806 12.3596 4.78725 12.3276 4.71249C12.2955 4.63773 12.2477 4.5708 12.1873 4.51631L7.85678 0.185804C7.80231 0.12539 7.73539 0.0775102 7.66063 0.0454686C7.58586 0.0134269 7.50504 -0.0020142 7.42373 0.000210364H1.23729C0.90944 0.00118951 0.5953 0.131861 0.363475 0.363685C0.13165 0.59551 0.000979145 0.90965 0 1.2375V16.085C0 16.4131 0.130357 16.7278 0.362393 16.9599C0.59443 17.1919 0.909139 17.3222 1.23729 17.3222H11.1356V16.085H1.23729V1.2375H6.18644V4.94936C6.18742 5.27721 6.31809 5.59135 6.54992 5.82318C6.78174 6.055 7.09588 6.18567 7.42373 6.18665H11.1356V7.42394H12.3729ZM7.42373 4.94936V1.48496L10.8881 4.94936H7.42373Z" fill="white"/>
</svg>
