<svg width="29" height="25" viewBox="0 0 29 25" fill="none" xmlns="http://www.w3.org/2000/svg">
<path d="M28.8017 10.497L11.1299 0.294693C10.6225 0.0027326 10.02 -0.0761489 9.45453 0.0753376C8.88905 0.226824 8.4067 0.59632 8.1132 1.10284L6.07867 4.62657L4.72428 6.97217C4.43215 7.47976 4.35325 8.08248 4.50487 8.64817C4.6565 9.21385 5.02627 9.69631 5.53311 9.98975L11.5921 13.4876L10.6498 15.0944C10.5245 15.3071 10.3459 15.4835 10.1317 15.6062C9.91749 15.7289 9.67503 15.7937 9.42817 15.7943H5.89062V13.0982C5.89062 12.993 5.84885 12.8922 5.7745 12.8178C5.70014 12.7435 5.59929 12.7017 5.49414 12.7017H3.3418V12.1901C3.34126 11.7246 3.15609 11.2783 2.82692 10.9491C2.49775 10.62 2.05145 10.4348 1.58594 10.4343H0.396484C0.344409 10.4342 0.292838 10.4445 0.244721 10.4644C0.196604 10.4843 0.152884 10.5135 0.116061 10.5503C0.0792383 10.5872 0.0500346 10.6309 0.03012 10.679C0.0102053 10.7271 -2.97181e-05 10.7787 6.48121e-08 10.8308V24.2698C-2.97181e-05 24.3218 0.0102053 24.3734 0.03012 24.4215C0.0500346 24.4696 0.0792383 24.5134 0.116061 24.5502C0.152884 24.587 0.196604 24.6162 0.244721 24.6361C0.292838 24.656 0.344409 24.6663 0.396484 24.6662H1.58594C2.05145 24.6657 2.49775 24.4805 2.82692 24.1514C3.15609 23.8222 3.34126 23.3759 3.3418 22.9104V21.6509H5.49414C5.59929 21.6509 5.70014 21.6091 5.7745 21.5348C5.84885 21.4604 5.89062 21.3596 5.89062 21.2544V19.306H9.42817C10.2871 19.3042 11.1307 19.0787 11.876 18.6519C12.6214 18.225 13.2427 17.6115 13.6789 16.8716L14.6334 15.244L17.9546 17.1614C18.289 17.3554 18.6687 17.4578 19.0553 17.4582C19.2496 17.4581 19.4431 17.4325 19.6307 17.382C19.9914 17.2861 20.3216 17.0998 20.5902 16.8408C21.0246 17.0423 21.4977 17.147 21.9766 17.1475C22.27 17.1473 22.5622 17.1086 22.8456 17.0324C23.5685 16.8403 24.2051 16.4091 24.6516 15.809L25.4636 16.2778C25.5087 16.3038 25.5585 16.3208 25.6101 16.3276C25.6618 16.3344 25.7142 16.331 25.7645 16.3175C25.8149 16.304 25.862 16.2807 25.9033 16.249C25.9446 16.2172 25.9793 16.1777 26.0053 16.1325L28.9461 11.0392C28.9722 10.9941 28.9892 10.9443 28.9961 10.8927C29.003 10.8411 28.9996 10.7886 28.9862 10.7382C28.9728 10.6879 28.9496 10.6407 28.918 10.5993C28.8863 10.5579 28.8468 10.5231 28.8017 10.497ZM2.54883 22.9104C2.54859 23.1657 2.44706 23.4105 2.26654 23.591C2.08601 23.7715 1.84124 23.873 1.58594 23.8733H0.792969V11.2272H1.58594C1.84124 11.2275 2.08601 11.329 2.26654 11.5095C2.44706 11.69 2.54859 11.9348 2.54883 12.1901V22.9104ZM5.09765 20.858H3.3418V13.4947H5.09765V20.858ZM12.9947 16.4703C12.6288 17.0912 12.1075 17.6061 11.4821 17.9643C10.8567 18.3225 10.1489 18.5117 9.42817 18.5133H5.89062V16.5875H9.42817C9.81324 16.5866 10.1915 16.4855 10.5256 16.2941C10.8597 16.1027 11.1383 15.8276 11.3338 15.4959L12.2797 13.8846L13.9476 14.8475L12.9947 16.4703ZM18.3516 16.4746L5.92959 9.30304C5.60464 9.11498 5.36757 8.80569 5.27039 8.44304C5.1732 8.08039 5.22385 7.694 5.41122 7.36865L6.56668 5.36652L17.9508 11.9391L21.441 13.9541L20.2853 15.9572L20.2837 15.9597C20.2535 16.0108 20.2202 16.06 20.1838 16.1069V16.1085C19.9747 16.3813 19.6736 16.5689 19.3365 16.6362C18.9995 16.7036 18.6494 16.6462 18.3516 16.4746ZM22.642 16.2664C22.1226 16.4069 21.572 16.3779 21.0703 16.1837L22.129 14.3502L23.9626 15.4087C23.6249 15.828 23.162 16.1285 22.6415 16.2664H22.642ZM25.5182 15.3919L22.9542 13.9115L22.1805 13.465L13.4268 8.41129L6.96362 4.67981L8.79991 1.49933C8.98805 1.17445 9.29737 0.937474 9.66001 0.840379C10.0227 0.743283 10.409 0.794 10.7343 0.981403L28.0618 10.9857L25.5182 15.3919Z" fill="#3C4043"/>
<path d="M23.8242 13.2367C24.0551 13.3709 24.3173 13.4416 24.5843 13.4418C24.7184 13.4417 24.8518 13.424 24.9813 13.3892C25.322 13.298 25.6206 13.0914 25.8261 12.8046C26.0316 12.5179 26.1313 12.1688 26.1083 11.8168C26.0853 11.4648 25.9409 11.1317 25.6998 10.8742C25.4587 10.6167 25.1357 10.4508 24.786 10.4047C24.4363 10.3586 24.0814 10.4352 23.7818 10.6214C23.4822 10.8077 23.2564 11.092 23.143 11.4261C23.0296 11.7601 23.0355 12.1231 23.1597 12.4533C23.2839 12.7834 23.5187 13.0603 23.8242 13.2367ZM23.9531 11.5504C24.0011 11.4673 24.065 11.3944 24.1413 11.3361C24.2175 11.2778 24.3046 11.2351 24.3974 11.2106C24.4595 11.194 24.5235 11.1855 24.5877 11.1854C24.749 11.1855 24.9057 11.2387 25.0336 11.3369C25.1615 11.4351 25.2535 11.5727 25.2952 11.7284C25.3369 11.8842 25.326 12.0494 25.2643 12.1983C25.2026 12.3473 25.0934 12.4717 24.9538 12.5523C24.8141 12.6329 24.6518 12.6652 24.4919 12.6441C24.332 12.623 24.1836 12.5498 24.0696 12.4358C23.9556 12.3217 23.8824 12.1733 23.8614 12.0134C23.8404 11.8535 23.8727 11.6912 23.9533 11.5516L23.9531 11.5504Z" fill="#3C4043"/>
<path d="M10.3083 9.22162L7.05941 7.34546C7.0143 7.31901 6.9644 7.30175 6.9126 7.29467C6.86079 7.28759 6.8081 7.29082 6.75754 7.30419C6.70699 7.31755 6.65958 7.34078 6.61805 7.37255C6.57651 7.40431 6.54167 7.44397 6.51552 7.48925C6.48938 7.53454 6.47245 7.58454 6.46571 7.6364C6.45897 7.68825 6.46255 7.74092 6.47625 7.79138C6.48995 7.84184 6.5135 7.8891 6.54554 7.93042C6.57757 7.97175 6.61747 8.00633 6.66292 8.03217L9.91273 9.90811C10.0034 9.95552 10.1089 9.96604 10.2072 9.93745C10.3055 9.90886 10.3889 9.84338 10.44 9.75471C10.4911 9.66603 10.5059 9.56104 10.4814 9.46168C10.4568 9.36233 10.3948 9.27631 10.3083 9.22162Z" fill="#3C4043"/>
</svg>
