<svg width="20" height="18" viewBox="0 0 20 18" fill="none" xmlns="http://www.w3.org/2000/svg">
<path d="M6.11787 17.7241H6.02925C4.24412 17.7084 2.4848 17.296 0.878672 16.5167C0.583233 16.378 0.339975 16.1483 0.184511 15.8612C0.0290472 15.5742 -0.030459 15.245 0.0147039 14.9217C0.0638221 14.5963 0.21451 14.2946 0.445255 14.0599C0.676 13.8252 0.975005 13.6694 1.29958 13.6147C2.29493 13.4819 3.25247 13.1464 4.11302 12.6289C2.61897 11.4608 1.46878 9.91023 0.784322 8.14157C0.0998673 6.37291 -0.0933459 4.45202 0.225158 2.58247C0.268343 2.28635 0.395697 2.00886 0.592065 1.78304C0.788433 1.55721 1.04555 1.39256 1.33281 1.30867C1.61229 1.2209 1.91139 1.21715 2.19298 1.29789C2.47457 1.37862 2.72624 1.54029 2.91675 1.76281C3.56362 2.61103 4.37652 3.31858 5.30585 3.84228C6.23519 4.36598 7.26147 4.69486 8.32209 4.80886C8.37276 3.50388 8.93356 2.27091 9.88388 1.37513C10.3584 0.920746 10.9186 0.565342 11.5319 0.32963C12.1451 0.0939187 12.7991 -0.0173864 13.4558 0.00220113C14.1125 0.0217887 14.7588 0.171877 15.3569 0.443721C15.955 0.715564 16.493 1.10373 16.9396 1.58559C17.056 1.68845 17.2005 1.75401 17.3546 1.77376C17.5086 1.79351 17.6651 1.76654 17.8036 1.69635C18.0677 1.57179 18.3618 1.52491 18.6515 1.56116C18.9413 1.59741 19.2147 1.71531 19.44 1.9011C19.6652 2.08689 19.833 2.33291 19.9238 2.61045C20.0145 2.88799 20.0245 3.18562 19.9524 3.4686C19.697 4.52099 19.2129 5.50423 18.5346 6.34849C18.3852 9.49948 16.996 12.4636 14.67 14.5945C12.344 16.7255 9.26987 17.8504 6.11787 17.7241ZM6.11787 15.5088H6.20648C7.49431 15.5531 8.77813 15.3413 9.98349 14.8857C11.1889 14.4301 12.2918 13.7398 13.2284 12.8547C14.1649 11.9697 14.9165 10.9075 15.4395 9.72981C15.9625 8.55212 16.2465 7.28232 16.275 5.99404C16.2933 5.64098 16.4389 5.3065 16.6849 5.05254C16.955 4.71055 17.1854 4.33894 17.3716 3.94489C16.9726 3.94565 16.5779 3.86218 16.2133 3.69994C15.8488 3.5377 15.5225 3.30034 15.256 3.00338C14.9997 2.74924 14.6952 2.54878 14.3605 2.41374C14.0258 2.2787 13.6674 2.2118 13.3065 2.21695C12.942 2.20752 12.5792 2.27019 12.239 2.40134C11.8987 2.5325 11.5877 2.72957 11.3238 2.98123C10.9678 3.31906 10.7068 3.74448 10.5668 4.21489C10.4268 4.68531 10.4129 5.18424 10.5263 5.66175L10.8143 6.92447L9.51836 7.01308C8.19039 7.12137 6.85475 6.93972 5.60393 6.4807C4.35312 6.02169 3.21702 5.29628 2.27431 4.35472C2.23388 5.81283 2.59864 7.25358 3.32802 8.5168C4.0574 9.78002 5.12283 10.8162 6.40586 11.5102L7.45813 12.1083L6.7603 13.1052C6.00565 14.0949 4.97165 14.8357 3.7918 15.2319C4.54867 15.4216 5.32653 15.5146 6.10679 15.5088H6.11787Z" fill="white"/>
</svg>
