<svg width="60" height="60" viewBox="0 0 60 60" fill="none" xmlns="http://www.w3.org/2000/svg">
<circle cx="30" cy="30" r="30" fill="#FF2C2C" fill-opacity="0.9"/>
<path d="M38 26H35.19C34.74 25.22 34.12 24.55 33.37 24.04L35 22.41L33.59 21L31.42 23.17C30.96 23.06 30.49 23 30 23C29.51 23 29.04 23.06 28.59 23.17L26.41 21L25 22.41L26.62 24.04C25.88 24.55 25.26 25.22 24.81 26H22V28H24.09C24.04 28.33 24 28.66 24 29V30H22V32H24V33C24 33.34 24.04 33.67 24.09 34H22V36H24.81C25.85 37.79 27.78 39 30 39C32.22 39 34.15 37.79 35.19 36H38V34H35.91C35.96 33.67 36 33.34 36 33V32H38V30H36V29C36 28.66 35.96 28.33 35.91 28H38V26ZM34 30V33C34 33.22 33.97 33.47 33.93 33.7L33.83 34.35L33.46 35C32.74 36.24 31.42 37 30 37C28.58 37 27.26 36.23 26.54 35L26.17 34.36L26.07 33.71C26.03 33.48 26 33.23 26 33V29C26 28.77 26.03 28.52 26.07 28.3L26.17 27.65L26.54 27C26.84 26.48 27.26 26.03 27.75 25.69L28.32 25.3L29.06 25.12C29.37 25.04 29.69 25 30 25C30.32 25 30.63 25.04 30.95 25.12L31.63 25.28L32.24 25.7C32.74 26.04 33.15 26.48 33.45 27.01L33.83 27.66L33.93 28.31C33.97 28.53 34 28.78 34 29V30ZM28 32H32V34H28V32ZM28 28H32V30H28V28Z" fill="white"/>
</svg>
