<svg width="27" height="27" viewBox="0 0 27 27" fill="none" xmlns="http://www.w3.org/2000/svg">
<path d="M26.5645 0H4.79032C4.5494 0 4.35484 0.195202 4.35484 0.435484V16.5937C4.21322 16.565 4.06778 16.5484 3.91935 16.5484C2.7188 16.5484 1.74194 17.5252 1.74194 18.7258V18.7349C1.31602 19.0554 1.02598 19.5187 0.918811 20.0323H0.435484C0.194564 20.0323 0 20.2275 0 20.4677V22.2097C0 22.45 0.194564 22.6452 0.435484 22.6452H0.870968V23.9516C0.870968 25.6325 2.23887 27 3.91935 27H26.5645C26.8054 27 27 26.8048 27 26.5645V0.435484C27 0.195202 26.8054 0 26.5645 0ZM26.129 0.870968V5.22581H5.22581V0.870968H26.129ZM2.41387 19.3342C2.56846 19.247 2.65522 19.075 2.63247 18.8987L2.62545 18.8481C2.61992 18.8081 2.6129 18.7681 2.6129 18.7258C2.6129 18.0056 3.19915 17.4194 3.91935 17.4194C4.37929 17.4194 4.79691 17.6592 5.03677 18.0617C5.10205 18.1715 5.21284 18.2472 5.33893 18.2682C5.46566 18.2899 5.59473 18.2537 5.69255 18.1706C5.86245 18.0264 6.14547 17.8548 6.53226 17.8548C6.99815 17.8548 7.43236 18.1121 7.66541 18.5264C7.75599 18.6884 7.94056 18.7745 8.12173 18.742C8.57635 18.661 9.04203 18.9731 9.12858 19.4356C9.15962 19.601 9.28316 19.7344 9.44647 19.7771C9.61063 19.8207 9.78223 19.7643 9.8911 19.635C10.1424 19.3342 10.5056 19.1613 10.8871 19.1613C11.454 19.1613 11.9331 19.5266 12.1134 20.0323H1.82912C1.9348 19.7439 2.13425 19.4913 2.41387 19.3342ZM8.27419 15.2419C8.27419 11.1597 11.5952 7.83871 15.6774 7.83871C19.7597 7.83871 23.0806 11.1597 23.0806 15.2419C23.0806 19.3242 19.7597 22.6452 15.6774 22.6452C15.0629 22.6452 14.462 22.5624 13.8768 22.4157C13.911 22.3534 13.9355 22.2854 13.9355 22.2097V21.5382C14.4998 21.694 15.0829 21.7742 15.6774 21.7742C19.2793 21.7742 22.2097 18.8438 22.2097 15.2419C22.2097 11.64 19.2793 8.70968 15.6774 8.70968C12.0755 8.70968 9.14516 11.64 9.14516 15.2419C9.14516 16.39 9.44349 17.4974 10.0066 18.4811C9.90896 18.5251 9.81412 18.575 9.72396 18.6335C9.50303 18.3007 9.17132 18.0547 8.78729 17.9354C8.45153 17.0774 8.27419 16.1739 8.27419 15.2419ZM10.9124 18.2929C10.5658 17.7534 10.3136 17.1659 10.1677 16.5484H10.4516C10.8484 16.5484 11.222 16.3938 11.5029 16.1129L11.7581 15.8582C11.9911 15.6251 12.396 15.6251 12.629 15.8582L12.8842 16.1129C13.4464 16.6743 14.4246 16.6747 14.9868 16.1129L15.2419 15.8582C15.475 15.6251 15.8799 15.6251 16.1129 15.8582L16.3681 16.1129C16.9303 16.6743 17.9084 16.6747 18.4706 16.1129L18.7258 15.8582C18.9589 15.6251 19.3637 15.6251 19.5968 15.8582L19.8519 16.1129C20.1333 16.3938 20.5064 16.5484 20.9032 16.5484H21.1807C20.5883 19.0411 18.3486 20.9032 15.6774 20.9032C15.0799 20.9032 14.4964 20.8056 13.9355 20.624V20.4677C13.9355 20.2275 13.7409 20.0323 13.5 20.0323H13.0205C12.8198 19.0475 11.9522 18.3052 10.9124 18.2929ZM10.0161 15.2419C10.0161 12.1204 12.5559 9.58065 15.6774 9.58065C18.799 9.58065 21.3387 12.1204 21.3387 15.2419C21.3387 15.3891 21.3279 15.5333 21.3166 15.6774H20.9032C20.7386 15.6774 20.5845 15.6134 20.4677 15.4971L20.2126 15.2419C19.6504 14.6806 18.6722 14.6801 18.11 15.2419L17.8548 15.4967C17.6218 15.7297 17.2169 15.7297 16.9839 15.4967L16.7287 15.2419C16.1665 14.6806 15.1884 14.6801 14.6261 15.2419L14.371 15.4967C14.1379 15.7297 13.7331 15.7297 13.5 15.4967L13.2448 15.2419C12.6826 14.6806 11.7045 14.6801 11.1423 15.2419L10.8871 15.4967C10.7704 15.6134 10.6162 15.6774 10.4516 15.6774H10.0327C10.0219 15.5333 10.0161 15.3878 10.0161 15.2419ZM0.870968 20.9032H13.0645V21.7742H0.870968V20.9032ZM9.58065 26.129H3.91935C2.7188 26.129 1.74194 25.1522 1.74194 23.9516V22.6452H12.1935V23.9516C12.1935 25.1522 11.2167 26.129 10.0161 26.129H9.58065ZM12.1453 26.129C12.7117 25.5751 13.0645 24.8043 13.0645 23.9516V23.0877C13.9042 23.3677 14.7794 23.5161 15.6774 23.5161C20.24 23.5161 23.9516 19.8045 23.9516 15.2419C23.9516 10.6793 20.24 6.96774 15.6774 6.96774C11.1148 6.96774 7.40323 10.6793 7.40323 15.2419C7.40323 15.9504 7.50125 16.6428 7.67583 17.3167C7.3371 17.104 6.94286 16.9839 6.53226 16.9839C6.17651 16.9839 5.8246 17.0749 5.50968 17.2461C5.42314 17.1521 5.32596 17.0711 5.22581 16.9943V6.09677H26.129V26.129H12.1453Z" fill="#3C4043"/>
<path d="M7.40362 4.35509C8.12383 4.35509 8.71007 3.76885 8.71007 3.04864C8.71007 2.32843 8.12383 1.74219 7.40362 1.74219C6.68341 1.74219 6.09717 2.32843 6.09717 3.04864C6.09717 3.76885 6.68341 4.35509 7.40362 4.35509ZM7.40362 2.61316C7.6439 2.61316 7.8391 2.80878 7.8391 3.04864C7.8391 3.2885 7.6439 3.48412 7.40362 3.48412C7.16334 3.48412 6.96814 3.2885 6.96814 3.04864C6.96814 2.80878 7.16334 2.61316 7.40362 2.61316Z" fill="#3C4043"/>
<path d="M10.887 4.35509C11.6072 4.35509 12.1935 3.76885 12.1935 3.04864C12.1935 2.32843 11.6072 1.74219 10.887 1.74219C10.1668 1.74219 9.58057 2.32843 9.58057 3.04864C9.58057 3.76885 10.1668 4.35509 10.887 4.35509ZM10.887 2.61316C11.1273 2.61316 11.3225 2.80878 11.3225 3.04864C11.3225 3.2885 11.1273 3.48412 10.887 3.48412C10.6467 3.48412 10.4515 3.2885 10.4515 3.04864C10.4515 2.80878 10.6467 2.61316 10.887 2.61316Z" fill="#3C4043"/>
<path d="M14.3709 4.35509C15.0911 4.35509 15.6774 3.76885 15.6774 3.04864C15.6774 2.32843 15.0911 1.74219 14.3709 1.74219C13.6507 1.74219 13.0645 2.32843 13.0645 3.04864C13.0645 3.76885 13.6507 4.35509 14.3709 4.35509ZM14.3709 2.61316C14.6112 2.61316 14.8064 2.80878 14.8064 3.04864C14.8064 3.2885 14.6112 3.48412 14.3709 3.48412C14.1306 3.48412 13.9354 3.2885 13.9354 3.04864C13.9354 2.80878 14.1306 2.61316 14.3709 2.61316Z" fill="#3C4043"/>
<path d="M24.3872 3.4834H25.2582V4.35437H24.3872V3.4834Z" fill="#3C4043"/>
<path d="M24.3872 1.74219H25.2582V2.61316H24.3872V1.74219Z" fill="#3C4043"/>
<path d="M22.645 3.4834H23.516V4.35437H22.645V3.4834Z" fill="#3C4043"/>
<path d="M22.645 1.74219H23.516V2.61316H22.645V1.74219Z" fill="#3C4043"/>
<path d="M20.9028 3.4834H21.7738V4.35437H20.9028V3.4834Z" fill="#3C4043"/>
<path d="M20.9028 1.74219H21.7738V2.61316H20.9028V1.74219Z" fill="#3C4043"/>
<path d="M19.1616 3.4834H20.0326V4.35437H19.1616V3.4834Z" fill="#3C4043"/>
<path d="M19.1616 1.74219H20.0326V2.61316H19.1616V1.74219Z" fill="#3C4043"/>
</svg>
