<svg width="29" height="29" viewBox="0 0 29 29" fill="none" xmlns="http://www.w3.org/2000/svg">
<path d="M29 16.3125V14.5C29 14.2494 28.7974 14.0469 28.5469 14.0469H28.0937V3.625C28.0937 3.1252 27.6873 2.71875 27.1875 2.71875H23.5625C23.0627 2.71875 22.6562 3.1252 22.6562 3.625V14.0469H16.7656V13.5937C16.7656 13.0939 16.3592 12.6875 15.8594 12.6875H15.2952L15.0365 11.7812H20.8437C21.3435 11.7812 21.75 11.3748 21.75 10.875V9.51562V0.90625C21.75 0.406453 21.3435 0 20.8437 0H5.4375C4.9377 0 4.53125 0.406453 4.53125 0.90625V9.51562V10.875C4.53125 11.3748 4.9377 11.7812 5.4375 11.7812H11.2452L10.9865 12.6875H10.4219C9.92207 12.6875 9.51562 13.0939 9.51562 13.5937V14.0469H7.70312V13.5937C7.70312 13.0939 7.29667 12.6875 6.79687 12.6875H1.8125C1.3127 12.6875 0.90625 13.0939 0.90625 13.5937V14.0469H0.453125C0.202547 14.0469 0 14.2494 0 14.5V16.3125C0 16.5631 0.202547 16.7656 0.453125 16.7656H3.29422L1.22253 28.0937H0V29H1.59998H2.95936H9.96875V28.0937H3.50265L5.15973 19.0312H23.8393L25.4964 28.0937H19.0312V29H26.0406H27.4H29V28.0937H27.7775L25.7058 16.7656H28.5469C28.7974 16.7656 29 16.5631 29 16.3125ZM23.5625 3.625H27.1875V14.0469H23.5625V3.625ZM5.4375 0.90625H20.8437V9.0625H5.4375V0.90625ZM5.4375 10.875V9.96875H20.8442L20.8446 10.875H14.4352H11.8456H5.4375ZM14.3523 12.6875H11.9281L12.1872 11.7812H14.0935L14.3523 12.6875ZM10.4219 13.5937H11.3281H14.9531H15.8594V14.0469H10.4219V13.5937ZM1.8125 13.5937H6.79687V14.0469H1.8125V13.5937ZM2.58145 28.0937H2.14328L4.21497 16.7656H4.65314L2.58145 28.0937ZM5.32603 18.125L5.57479 16.7656H23.4261L23.6749 18.125H5.32603ZM26.8567 28.0937H26.4185L24.3464 16.7656H24.7846L26.8567 28.0937ZM28.0937 15.8594H25.1625H23.8031H5.19689H3.83751H0.90625V14.9531H1.35937H7.25H9.96875H16.3125H23.1094H27.6406H28.0937V15.8594Z" fill="#3C4043"/>
<path d="M26.2812 4.53125H24.4688V5.4375H26.2812V4.53125Z" fill="#3C4043"/>
<path d="M25.8281 6.34375H24.9219V10.875H25.8281V6.34375Z" fill="#3C4043"/>
<path d="M24.9219 11.7812H24.0156V13.1406H24.9219V11.7812Z" fill="#3C4043"/>
<path d="M26.7344 11.7812H25.8281V13.1406H26.7344V11.7812Z" fill="#3C4043"/>
<path d="M18.125 28.0938H10.875V29H18.125V28.0938Z" fill="#3C4043"/>
</svg>
